<svg width="110" height="110" viewBox="0 0 69 69" fill="none" xmlns="http://www.w3.org/2000/svg">
<path d="M7.09143 46.0121L12.0447 57.3693C12.2806 57.9073 12.8702 58.1464 13.4009 57.9073L18.5311 55.5761C19.0618 55.337 19.2977 54.7392 19.0618 54.2013L14.1085 42.844C13.8727 42.306 13.283 42.0669 12.7523 42.306L7.62214 44.6372C7.09143 44.8763 6.85556 45.4741 7.09143 46.0121Z" fill="#85c225"/>
<path d="M57.3316 41.8876L50.1376 45.3545L45.4202 47.2076C46.0689 48.164 46.0689 49.1801 46.0099 49.8377C45.892 50.4952 45.3613 50.9734 44.7126 50.9734C44.6537 50.9734 44.5947 50.9734 44.5357 50.9734L36.6341 49.8975C35.8675 49.7779 35.1009 49.5388 34.3344 49.2399L31.1501 47.9249C31.0322 47.8651 30.9732 47.7455 31.0322 47.626C31.0912 47.5064 31.2091 47.4467 31.327 47.5064L34.5113 48.8215C35.2189 49.1204 35.9265 49.2997 36.6931 49.4193L44.5947 50.4952C45.0664 50.555 45.5382 50.1963 45.5971 49.7181C45.774 48.4031 45.4202 46.6696 42.6488 45.7132L35.1009 42.9635L31.6808 41.4094C30.4425 40.8714 29.1452 40.6323 27.789 40.7519L22.8947 41.1703C22.1871 41.2301 21.4795 41.4094 20.7719 41.6485L15.052 43.8004L19.0618 53.0058L22.4819 51.2125C23.3664 50.7343 24.3689 50.6745 25.3124 50.9734L39.5825 55.8152C40.5849 56.1738 41.6463 56.0543 42.5898 55.5163L62.3439 44.2786C62.4028 44.2786 63.5232 43.5613 62.6977 42.0669C62.108 41.0507 60.1621 40.5128 57.3316 41.8876Z" fill="#85c225"/>
<path d="M56.0933 19.3523C56.0933 19.3523 55.1498 20.6076 50.7273 21.8031C46.3047 22.9986 46.5406 28.1393 46.5406 28.1393C46.5406 28.1393 48.6045 25.2103 51.6118 24.3735C51.6118 24.3735 47.4251 27.3622 46.3047 29.2152L43.6512 32.9811L42.7077 29.7532C42.0591 26.7645 37.8134 20.8467 37.8134 20.8467C41.4104 23.2975 42.8257 28.1393 42.8257 28.1393C42.8257 28.1393 45.4792 21.3847 40.1132 17.7384C34.7471 14.0921 34.0395 12 34.0395 12C34.0395 12 30.5604 17.1407 31.9757 21.6836C32.6833 23.8953 34.4523 25.569 36.3392 26.7645C37.1058 27.2427 37.9314 27.6611 38.7569 28.0197C39.1107 28.1393 39.4645 28.2588 39.7594 28.4979C40.408 28.9164 40.9387 29.6337 41.4104 30.2314C41.9411 30.9487 42.3539 31.7258 42.7077 32.5029C43.0615 33.3995 43.2974 34.3559 43.4153 35.3123C43.4153 35.3123 43.4153 35.8503 43.4153 36.1492L35.2189 42.4256L35.2778 42.4853L42.7667 45.235C43.8871 45.6534 44.6536 46.1316 45.1844 46.7294L49.9017 44.8763L53.5577 43.0831L44.2998 36.0894L43.8871 34.1766C44.064 33.7582 44.4178 32.9213 44.4178 32.8615C44.7126 32.2638 45.1254 31.666 45.5382 31.1281C45.9509 30.6499 46.4227 30.2314 46.8944 29.8728C47.3661 29.5739 47.8379 29.2152 48.4276 29.0957C48.6634 29.0359 48.9583 29.0359 49.2531 29.0359C49.9017 28.9761 50.5504 28.9164 51.1401 28.737C52.6732 28.3784 54.2653 27.6611 55.2678 26.346C57.2727 23.6562 56.0933 19.3523 56.0933 19.3523Z" fill="#85c225"/>
</svg>
