<svg width="110" height="110" viewBox="0 0 69 69" fill="none" xmlns="http://www.w3.org/2000/svg">
<path fill-rule="evenodd" clip-rule="evenodd" d="M58.8241 55.1566C61.206 55.6147 63 57.6224 63 60.0292C63 62.7744 60.6668 65 57.7888 65C54.9109 65 52.5777 62.7744 52.5777 60.0292C52.5777 57.6224 54.3717 55.6147 56.7536 55.1566V50.5098H36.0352V55.1566C38.4172 55.6147 40.2112 57.6224 40.2112 60.0292C40.2112 62.7744 37.8779 65 35 65C32.1221 65 29.7888 62.7744 29.7888 60.0292C29.7888 57.6224 31.5828 55.6147 33.9648 55.1566V50.5098H13.2464V55.1566C15.6283 55.6147 17.4223 57.6224 17.4223 60.0292C17.4223 62.7744 15.0891 65 12.2112 65C9.33322 65 7 62.7744 7 60.0292C7 57.6224 8.79399 55.6147 11.1759 55.1566V49.5216C11.1759 48.9759 11.6397 48.5341 12.2112 48.5341H33.9648V45.2281C33.9648 44.6824 34.4285 44.2407 35 44.2407C35.5722 44.2407 36.0352 44.683 36.0352 45.2281V48.5341H57.7888C58.361 48.5341 58.8241 48.9765 58.8241 49.5216V55.1566ZM18.0253 42.3907H51.974C52.6868 42.3907 53.2685 41.8358 53.2685 41.1558V21.7491H59.0669L35.7395 6.22626C35.2861 5.92458 34.7119 5.92458 34.2584 6.22626L10.9324 21.7491H16.7308V41.1558C16.7308 41.8358 17.3119 42.3907 18.0253 42.3907ZM36.6239 31.8988H39.8517V40.5387C39.8517 40.8784 39.5608 41.1558 39.2047 41.1558H30.7939C30.4378 41.1558 30.147 40.8784 30.147 40.5387V31.8988H33.3748V34.9345C33.3748 35.3429 33.724 35.6753 34.1514 35.6753H35.8473C36.2753 35.6753 36.6239 35.3422 36.6239 34.9345V31.8988ZM47.6231 31.8988H50.8509V40.5387C50.8509 40.8784 50.5601 41.1558 50.204 41.1558H41.7932C41.4371 41.1558 41.1462 40.8784 41.1462 40.5387V31.8988H44.374V34.9345C44.374 35.3429 44.7232 35.6753 45.1506 35.6753H46.8465C47.2746 35.6753 47.6231 35.3422 47.6231 34.9345V31.8988ZM25.6253 21.4075H28.8531V30.0475C28.8531 30.3871 28.5622 30.6646 28.2062 30.6646H19.7953C19.4393 30.6646 19.1484 30.3871 19.1484 30.0475V21.4075H22.3762V24.4433C22.3762 24.8516 22.7254 25.184 23.1528 25.184H24.8487C25.2768 25.184 25.6253 24.851 25.6253 24.4433V21.4075ZM36.6239 21.4075H39.8517V30.0475C39.8517 30.3871 39.5608 30.6646 39.2047 30.6646H30.7939C30.4378 30.6646 30.147 30.3871 30.147 30.0475V21.4075H33.3748V24.4433C33.3748 24.8516 33.724 25.184 34.1514 25.184H35.8473C36.2753 25.184 36.6239 24.851 36.6239 24.4433V21.4075ZM25.6253 31.8988H28.8531V40.5387C28.8531 40.8784 28.5622 41.1558 28.2062 41.1558H19.7953C19.4393 41.1558 19.1484 40.8784 19.1484 40.5387V31.8988H22.3762V34.9345C22.3762 35.3429 22.7254 35.6753 23.1528 35.6753H24.8487C25.2768 35.6753 25.6253 35.3422 25.6253 34.9345V31.8988ZM33.5154 13.2793H36.4832C36.7686 13.2793 37.0012 13.5012 37.0012 13.7734V16.6043C37.0012 16.8765 36.7686 17.0984 36.4832 17.0984H33.5154C33.23 17.0984 32.9974 16.8765 32.9974 16.6043V13.7734C32.9974 13.5012 33.2307 13.2793 33.5154 13.2793Z" fill="#85c225"/>
</svg>
