<svg width="110" height="110" viewBox="0 0 69 69" fill="none" xmlns="http://www.w3.org/2000/svg">
<path d="M53.2582 49.1586C52.6854 49.6288 52.0127 49.9045 51.2816 49.9039H51.2818V49.3039L51.2813 49.9039H17.7187C17.7186 49.9039 17.7185 49.9039 17.7184 49.9039H17.7182V49.3039C16.9383 49.3046 16.1935 48.896 15.6053 48.1724L53.2582 49.1586ZM53.2582 49.1586C53.139 49.6582 52.9488 50.1088 52.7042 50.4748C52.2716 51.1209 51.7472 51.399 51.2811 51.4H17.7188C17.2523 51.399 16.7282 51.1209 16.2957 50.4748C16.0511 50.1088 15.8609 49.6582 15.7417 49.1585L53.2582 49.1586Z" stroke="#85c225" stroke-width="1.2"/>
<path d="M22.3946 16.4267L22.3946 16.4268C22.0893 16.595 21.9087 16.9007 21.9086 17.2238C21.9086 17.2239 21.9086 17.224 21.9086 17.2241V20.75C21.9086 21.0733 22.0893 21.3794 22.3946 21.5476C22.701 21.7163 23.0808 21.7164 23.3876 21.5475C23.6925 21.3793 23.8733 21.0734 23.8735 20.7503C23.8735 20.7502 23.8735 20.7501 23.8735 20.75V17.2241C23.8735 16.901 23.6926 16.5951 23.3875 16.4268L22.3946 16.4267ZM22.3946 16.4267C22.7009 16.2578 23.0806 16.2577 23.3874 16.4267H22.3946Z" stroke="#85c225" stroke-width="0.6"/>
<path d="M34.1352 21.5462L34.1352 21.5462C33.8304 21.3782 33.6501 21.0729 33.6501 20.7502V17.2243C33.6501 17.2242 33.6501 17.2241 33.6501 17.224C33.6502 16.9015 33.8305 16.5964 34.1351 16.4288L34.1352 16.4287C34.4413 16.26 34.8199 16.26 35.1259 16.4287L35.1261 16.4288C35.4308 16.5965 35.6111 16.9016 35.6111 17.2243V20.7502C35.6111 20.7503 35.6111 20.7504 35.6111 20.7505C35.611 21.0731 35.4307 21.3782 35.1259 21.5462C34.8199 21.7149 34.4413 21.7149 34.1352 21.5462Z" stroke="#85c225" stroke-width="0.6"/>
<path d="M28.2676 21.5462L28.2675 21.5462C27.9627 21.3782 27.7824 21.0729 27.7824 20.7502V17.2243C27.7824 17.2242 27.7824 17.2241 27.7824 17.224C27.7825 16.9015 27.9628 16.5964 28.2674 16.4288L28.2676 16.4286C28.5733 16.26 28.9522 16.2599 29.2582 16.4287L29.2584 16.4288C29.5631 16.5965 29.7434 16.9016 29.7434 17.2243V20.7502C29.7434 20.7503 29.7434 20.7504 29.7434 20.7505C29.7433 21.0731 29.563 21.3782 29.2582 21.5462C28.9521 21.7149 28.5733 21.7149 28.2676 21.5462Z" stroke="#85c225" stroke-width="0.6"/>
<path d="M40.9948 21.5462L40.9948 21.5462C40.689 21.7149 40.3102 21.7149 40.0041 21.5462L40.0041 21.5462C39.6993 21.3782 39.519 21.0729 39.519 20.7502V17.2243C39.519 17.2242 39.519 17.2241 39.519 17.224C39.5191 16.9015 39.6994 16.5964 40.004 16.4288L40.0041 16.4287C40.3103 16.2599 40.6891 16.26 40.9948 16.4286L40.995 16.4288C41.2997 16.5965 41.48 16.9016 41.48 17.2243V20.7502C41.48 20.7503 41.48 20.7504 41.48 20.7505C41.4799 21.0731 41.2996 21.3782 40.9948 21.5462Z" stroke="#85c225" stroke-width="0.6"/>
<path d="M52.7419 21.6037V25.2389H16.2581V21.6037C16.2589 21.0602 16.5272 20.539 17.0037 20.1548C17.4805 19.7705 18.1264 19.5541 18.8005 19.5534H21.001V21.2606C21.001 21.7916 21.3524 22.2825 21.9225 22.548C22.4928 22.8135 23.1953 22.8135 23.7657 22.548C24.336 22.2824 24.6871 21.7916 24.6871 21.2606V19.5534H26.8304V21.2606C26.8304 21.7911 27.1815 22.2812 27.7513 22.5465C28.3211 22.8118 29.023 22.8118 29.5925 22.5465C30.1623 22.2812 30.5134 21.7911 30.5134 21.2606V19.5534H32.6567V21.2606C32.6567 21.7911 33.0078 22.2812 33.5773 22.5465C34.147 22.8118 34.8489 22.8118 35.4187 22.5465C35.9882 22.2812 36.3393 21.7911 36.3393 21.2606V19.5534H38.4826V21.2606C38.4826 21.7911 38.8337 22.2812 39.4032 22.5465C39.973 22.8118 40.6749 22.8118 41.2447 22.5465C41.8145 22.2812 42.1653 21.7911 42.1653 21.2606V19.5534H44.3085V21.2606C44.3085 21.7916 44.6599 22.2825 45.2303 22.548C45.8007 22.8135 46.5032 22.8135 47.0735 22.548C47.6436 22.2824 47.995 21.7916 47.995 21.2606V19.5534H50.1992C50.6999 19.5522 51.1898 19.671 51.6065 19.8949C52.0232 20.1186 52.3483 20.437 52.5402 20.81C52.6744 21.0607 52.7431 21.3309 52.7419 21.6037Z" stroke="#85c225" stroke-width="1.6"/>
<path d="M47.354 20.75V17.2241C47.354 16.9008 47.1734 16.5951 46.868 16.4268L47.354 20.75ZM47.354 20.75C47.354 20.7501 47.354 20.7502 47.354 20.7503M47.354 20.75V20.7503M47.354 20.7503C47.3539 21.0735 47.1733 21.3794 46.8681 21.5475M47.354 20.7503L46.8681 21.5475M46.8681 21.5475C46.5614 21.7164 46.1818 21.7164 45.875 21.5475C45.5699 21.3792 45.3891 21.0731 45.3891 20.75V17.2241C45.3891 17.224 45.3891 17.2239 45.3891 17.2238C45.3892 16.9008 45.57 16.5951 45.8751 16.4268L46.8681 21.5475ZM45.8752 16.4267C46.1819 16.2578 46.5613 16.2578 46.868 16.4268L45.8752 16.4267Z" stroke="#85c225" stroke-width="0.6"/>
<path d="M16.2581 25.9496V45.6166C16.2595 46.244 16.5281 46.8451 17.0046 47.2881C17.4815 47.7314 18.1271 47.9804 18.8008 47.981H50.1991C50.8728 47.9804 51.5185 47.7314 51.9953 47.2881C52.4719 46.8451 52.7405 46.244 52.7419 45.6166V25.9496H16.2581ZM19.1546 29.177H27.1072C27.2644 29.177 27.3921 29.2959 27.3921 29.4426C27.3921 29.5893 27.2644 29.7079 27.1072 29.7079H19.1546C18.9971 29.7079 18.8696 29.5893 18.8696 29.4426C18.8696 29.2959 18.9971 29.177 19.1546 29.177ZM24.2442 32.7231L19.1546 32.7233C18.9971 32.7233 18.8696 32.6044 18.8696 32.4577C18.8696 32.3113 18.9971 32.1924 19.1546 32.1924H24.2442C24.4017 32.1924 24.5294 32.3113 24.5294 32.4577C24.5294 32.6044 24.4017 32.7231 24.2442 32.7231ZM36.8714 37.3955L36.7795 38.4935L36.4905 39.213C36.508 39.3124 36.4633 39.4124 36.3758 39.4716C36.2881 39.5305 36.1723 39.5387 36.0763 39.4922L34.5016 39.416L32.9306 39.4922C32.8898 39.5123 32.844 39.5221 32.7976 39.521C32.7376 39.5218 32.6789 39.5045 32.6305 39.4713C32.5427 39.4124 32.4987 39.3122 32.5165 39.213L32.2238 38.4935L32.1319 37.3955C32.0528 37.3271 32.0245 37.2214 32.0595 37.1264C32.0916 37.0302 32.1806 36.9599 32.2876 36.946L33.201 36.1744L34.247 35.9294C34.3001 35.8454 34.3969 35.7938 34.5016 35.7938C34.6063 35.7938 34.7031 35.8452 34.7562 35.9291L35.8022 36.1741L36.7156 36.9457C36.822 36.9601 36.9104 37.0302 36.9437 37.1255C36.9766 37.2209 36.9486 37.3257 36.8714 37.3955Z" stroke="#85c225" stroke-width="1.6"/>
<path d="M38.5942 38.6021C38.4143 38.7759 38.3313 39.0325 38.3735 39.2765L38.9886 42.6967C39.0377 42.9886 38.9201 43.2799 38.6772 43.4474C38.442 43.6212 38.1307 43.6421 37.8678 43.503L34.8038 41.8972C34.6924 41.8416 34.5748 41.8062 34.4578 41.8062H34.2704C34.2012 41.8131 34.1396 41.8416 34.0836 41.8687L31.0188 43.4822C30.8666 43.5587 30.6937 43.5865 30.5276 43.5587C30.1126 43.4752 29.8434 43.0853 29.9119 42.6751L30.5276 39.2549C30.5692 39.0053 30.4861 38.7551 30.307 38.5743L27.8088 36.1413C27.6013 35.9327 27.5252 35.6331 27.6227 35.3557C27.7126 35.0839 27.9472 34.8823 28.2377 34.8344L31.6761 34.3331C31.9389 34.3053 32.1672 34.1461 32.2849 33.9098L33.7999 30.7885C33.8345 30.719 33.883 30.6557 33.939 30.6008L34.0006 30.5522C34.0282 30.5167 34.0697 30.4896 34.1119 30.4618L34.1873 30.434L34.305 30.3853H34.5962C34.8591 30.4131 35.0874 30.5723 35.205 30.8017L36.7401 33.9098C36.8508 34.1392 37.0653 34.2921 37.3144 34.3331L40.7527 34.8344C41.0432 34.8761 41.2861 35.0777 41.3822 35.3557C41.4722 35.6331 41.3961 35.9397 41.1816 36.1413L38.5942 38.6021Z" fill="#85c225"/>
</svg>
