<svg width="110" height="110" viewBox="0 0 69 69" fill="none" xmlns="http://www.w3.org/2000/svg">
<path d="M27.7655 45.7159L27.7909 46.0395V60.25H7.75V46.046L7.77596 45.7159C8.06649 42.0204 11.1279 38.8842 15.3339 37.9799L17.7701 37.4561L20.2076 37.9799C24.4135 38.8838 27.4749 42.0204 27.7655 45.7159ZM20.1113 36.5409L17.7708 37.3829L15.4301 36.5409C12.7561 35.5791 10.8447 33.0293 10.8447 30.0305C10.8447 26.206 13.9459 23.1052 17.7711 23.1052C21.5963 23.1052 24.6967 26.2055 24.6967 30.0305C24.6967 33.03 22.7854 35.579 20.1113 36.5409Z" stroke="#85c225" stroke-width="1.5"/>
<path d="M44.9818 50.5228L45.0002 50.7574V60.25H31.2724L31.2721 50.7498L31.2899 50.5229C31.4865 48.0265 33.5607 45.8754 36.4597 45.2521L38.1358 44.8917L39.812 45.2521C42.7112 45.8754 44.7857 48.0266 44.9818 50.5228ZM39.7159 43.8131L38.1355 44.3813L36.556 43.8131C34.7496 43.1633 33.46 41.4417 33.46 39.4174C33.46 36.8352 35.5535 34.7417 38.1359 34.7417C40.7183 34.7417 42.8118 36.8352 42.8118 39.4174C42.8118 41.4417 41.5221 43.1637 39.7159 43.8131Z" stroke="#85c225" stroke-width="1.5"/>
<path d="M62.2316 50.5228L62.25 50.7574V60.25H48.5222L48.5219 50.7498L48.5397 50.5229C48.7363 48.0265 50.8104 45.8754 53.7095 45.2521L55.3856 44.8917L57.0618 45.2521C59.961 45.8754 62.0355 48.0266 62.2316 50.5228ZM56.9657 43.8131L55.3853 44.3813L53.8058 43.8131C51.9994 43.1633 50.7098 41.4417 50.7098 39.4174C50.7098 36.8352 52.8033 34.7417 55.3857 34.7417C57.968 34.7417 60.0616 36.8352 60.0616 39.4174C60.0616 41.4417 58.7719 43.1637 56.9657 43.8131Z" stroke="#85c225" stroke-width="1.5"/>
<path d="M48.9067 12H31.2035C29.7334 12 28.5416 13.1918 28.5416 14.6618V29.985C28.5416 30.6334 29.3131 30.9706 29.7887 30.5309L34.76 25.938C34.8973 25.8113 35.0774 25.7406 35.2643 25.7406H48.9065C50.3766 25.7406 51.5684 24.5488 51.5684 23.0788V14.6623C51.5688 13.1923 50.3767 12 48.9067 12Z" fill="#85c225"/>
</svg>
