<svg width="110" height="110" viewBox="0 0 69 69" fill="none" xmlns="http://www.w3.org/2000/svg">
<path d="M20.7858 18.561C21.0093 18.561 21.2701 18.561 21.4937 18.561C22.4997 18.4143 23.3939 17.8279 23.9155 16.9849L17.9541 16.5084C18.4012 17.6446 19.4817 18.451 20.7858 18.561Z" fill="#85c225"/>
<path d="M27.1198 16.5084L25.7412 16.3984L24.2508 16.2884L17.7305 15.7753L16.2029 15.6653L14.9361 15.5554L17.8423 14.3092C18.2149 13.0996 19.2954 12.1833 20.5995 12.0367C20.823 12 21.0466 12 21.3074 12C22.9095 12.11 24.1391 13.3195 24.3626 14.7857L27.1198 16.5084Z" fill="#85c225"/>
<path d="M62.2176 35.1649C58.1191 32.0861 53.0519 30.3267 47.9102 30.1801V26.0382C47.9102 24.5721 49.1025 23.3992 50.5928 23.3992V21.9331C48.2828 21.9331 46.4198 23.7657 46.4198 26.0382V30.2167C43.998 30.29 41.6507 30.6932 39.3406 31.463L37.2542 32.0861L31.2555 26.5514C31.2555 26.5147 31.2555 26.4781 31.2555 26.4781C31.2555 25.855 30.7339 25.3418 30.1005 25.3418H24.9215C24.7725 25.3418 24.6234 25.2319 24.5862 25.1219L22.984 21.0534C22.5742 20.0271 21.6055 19.3673 20.4877 19.3673H20.0406C18.4757 19.3673 17.1717 20.6135 17.1717 22.1896V27.541C18.2522 27.3211 19.3327 27.1745 20.4504 27.1745C21.0838 27.1745 21.7172 27.2112 22.3134 27.2845C22.2016 27.1379 22.1271 26.9912 22.0526 26.808L21.2701 22.6295L22.7605 26.5514C22.9468 27.0279 23.3194 27.3944 23.8037 27.541C23.8782 27.5777 23.99 27.5777 24.0645 27.6143C24.1391 27.6143 24.2136 27.6143 24.2881 27.6143H30.0632C30.1005 27.6143 30.1377 27.6143 30.1377 27.6143L36.2854 33.259V33.5522C36.2854 36.1912 34.5715 38.4271 32.187 39.2701C32.2987 39.8199 32.3733 40.3697 32.4478 40.9195C32.485 41.2128 32.485 41.506 32.485 41.7992C32.485 42.6056 32.4105 43.4486 32.2242 44.2183C32.1497 44.6215 32.0379 45.0247 31.8889 45.3912H39.6015C39.5642 45.1347 39.5642 44.9147 39.5642 44.6582C39.5642 39.6733 43.6627 35.6414 48.6926 35.6414C53.7226 35.6414 57.821 39.6733 57.821 44.6582C57.821 44.9147 57.821 45.1347 57.7838 45.3912H59.7212L62.851 37.4008C63.1863 36.6311 62.9255 35.6781 62.2176 35.1649Z" fill="#85c225"/>
<path d="M8.60213 41.7992H7.11178C7.11178 38.2805 8.49035 34.945 11.024 32.4892C13.5576 29.9968 16.9108 28.6406 20.4877 28.6406C24.0645 28.6406 27.4178 29.9968 29.9514 32.4892L28.9082 33.5155C26.6727 31.3163 23.6919 30.0701 20.525 30.0701C17.358 30.0701 14.3772 31.2797 12.1417 33.5155C9.83167 35.7147 8.60213 38.6837 8.60213 41.7992Z" fill="#85c225"/>
<path d="M20.3387 52.2088C20.3759 52.2088 20.4132 52.2088 20.4504 52.2088C20.6367 52.2088 20.823 52.2088 21.0093 52.1721C22.7605 50.596 25.0333 49.643 27.4551 49.5697C28.7591 48.4335 29.7651 47.004 30.3613 45.3912C30.5476 44.9147 30.6966 44.4382 30.8084 43.9251C30.9574 43.2287 31.0319 42.5323 31.0319 41.7992C31.0319 41.5426 31.0319 41.2861 30.9947 41.0295C30.9574 40.553 30.8829 40.0398 30.7711 39.5633C29.7279 34.8717 25.5176 31.353 20.4504 31.353C14.6381 31.353 9.90619 36.008 9.90619 41.7625C9.90619 44.8414 11.2848 47.6271 13.4458 49.5331H13.483C16.0539 49.5697 18.4757 50.5227 20.3387 52.2088ZM20.4877 37.4741C22.9095 37.4741 24.8842 39.4167 24.8842 41.7992C24.8842 44.1817 22.9095 46.1243 20.4877 46.1243C18.0659 46.1243 16.0912 44.1817 16.0912 41.7992C16.0912 39.4167 18.0659 37.4741 20.4877 37.4741Z" fill="#85c225"/>
<path d="M49.8476 52.1355C51.1144 51.0359 52.6048 50.2295 54.2442 49.8629C55.5482 48.5068 56.3307 46.6741 56.3307 44.6948C56.3307 40.5163 52.9029 37.1442 48.6926 37.1442C44.4824 37.1442 41.0918 40.5163 41.0918 44.6582C41.0918 46.5275 41.7997 48.2502 42.9548 49.6064C45.2275 49.753 47.3886 50.6693 49.0652 52.2088C49.326 52.1721 49.5868 52.1721 49.8476 52.1355ZM45.153 44.6582C45.153 42.7155 46.7552 41.1394 48.7299 41.1394C50.7046 41.1394 52.3067 42.7155 52.3067 44.6582C52.3067 46.6008 50.7046 48.1769 48.7299 48.1769C46.7552 48.2135 45.153 46.6008 45.153 44.6582Z" fill="#85c225"/>
<path d="M56.6287 51.0359C54.0579 51.0359 51.6733 52.1355 49.9967 54.0781L49.4378 54.7379L48.8417 54.0781C47.2023 52.1355 44.7804 51.0359 42.2096 51.0359C39.6387 51.0359 37.2542 52.1355 35.5775 54.0781L35.0186 54.7379L34.4597 54.0781C32.8204 52.1355 30.3985 51.0359 27.8277 51.0359C25.2568 51.0359 22.8723 52.1355 21.1956 54.0781L20.6367 54.7379L20.0778 54.0781C18.4385 52.1355 16.0166 51.0359 13.4458 51.0359C10.9867 51.0359 8.63939 52.0622 7 53.8948V54.9211V57.3402V58H63V57.3769V54.9578V53.9315C61.3979 52.0622 59.0878 51.0359 56.6287 51.0359Z" fill="#85c225"/>
</svg>
