<svg width="110" height="110" viewBox="0 0 69 69" fill="none" xmlns="http://www.w3.org/2000/svg">
<path d="M19.9099 31.1286C19.4708 31.1286 19.1149 30.7822 19.1149 30.3549C19.1149 29.9276 19.4708 29.5812 19.9099 29.5812C20.349 29.5812 20.705 29.9276 20.705 30.3549C20.705 30.7822 20.349 31.1286 19.9099 31.1286Z" fill="#85c225"/>
<path d="M27.8605 31.1286C27.4214 31.1286 27.0654 30.7822 27.0654 30.3549C27.0654 29.9276 27.4214 29.5812 27.8605 29.5812C28.2996 29.5812 28.6556 29.9276 28.6556 30.3549C28.6556 30.7822 28.2996 31.1286 27.8605 31.1286Z" fill="#85c225"/>
<path d="M20.6032 26.6859C20.5929 26.6841 19.5543 26.5189 18.836 27.0116C18.7664 27.0594 18.6865 27.0822 18.6073 27.0822C18.4825 27.0822 18.3595 27.0251 18.282 26.9183C18.1556 26.7436 18.1986 26.5022 18.3779 26.3792C19.3703 25.6986 20.6847 25.9141 20.7402 25.9237C20.9559 25.9607 21.0997 26.1606 21.0623 26.3707C21.0249 26.5808 20.819 26.7217 20.6032 26.6859Z" fill="#85c225"/>
<path d="M29.1631 27.0822C29.084 27.0822 29.004 27.0593 28.9344 27.0116C28.216 26.5189 27.1774 26.6841 27.1672 26.6859C26.9516 26.7224 26.7458 26.5818 26.7078 26.3719C26.6697 26.1614 26.8141 25.9608 27.0303 25.9237C27.0858 25.9141 28.4001 25.6986 29.3925 26.3792C29.572 26.5022 29.6149 26.7437 29.4884 26.9183C29.411 27.0252 29.2879 27.0822 29.1631 27.0822Z" fill="#85c225"/>
<path d="M15.5784 46.9625C13.9424 45.7963 12.6291 44.411 12.0175 43.1897C10.8559 40.8697 11.2786 39.104 11.4701 38.5396C10.5853 36.9815 10.079 35.4746 10.079 34.3839C10.079 33.1825 10.4653 32.1839 11.226 31.4059C10.6715 31.064 9.86426 30.384 9.69749 29.2592C9.54107 28.2043 9.99117 27.5473 10.3882 26.9677C10.6268 26.6192 10.8522 26.2902 10.9431 25.8877C11.0205 25.5457 10.9892 25.1417 10.9529 24.6738C10.8752 23.6705 10.7784 22.4219 11.6938 20.9496C11.9214 20.5835 12.2124 20.2419 12.5585 19.9321C12.6822 19.4599 13.2022 17.7484 14.6131 16.0218C16.1121 14.187 18.9379 12 23.8862 12C27.2249 12 29.9848 12.9728 32.0892 14.8913C33.7622 16.4165 34.5988 18.1824 34.9659 19.168C37.3026 20.8697 38.6902 23.0972 38.5073 24.8684C38.3581 26.3202 37.1771 27.0136 36.3132 27.2578C36.7023 29.0017 36.1535 30.3522 35.8409 30.9371C36.4898 31.4949 36.8307 32.2285 36.8307 33.0784C36.8307 34.0508 36.4189 35.1682 35.6374 36.3228C35.9876 36.8653 36.6618 38.2587 35.829 40.0375C35.5567 40.6194 35.0098 41.3345 34.2792 42.0673C34.4595 42.7141 34.7872 44.5285 33.4247 46.1755C33.1486 46.51 32.8139 46.8361 32.4263 47.1485C36.1526 50.178 38.6964 54.5906 39.9906 60.2732C40.0166 60.3877 39.9879 60.5075 39.9125 60.599C39.8371 60.6904 39.723 60.7437 39.6024 60.7437H8.16979C7.7817 60.7437 7.7178 60.5558 7.7817 60.2732C9.10368 54.4672 11.7259 49.9924 15.5784 46.9625ZM12.3741 21.3503C11.5902 22.6107 11.6728 23.6759 11.7457 24.6157C11.7849 25.1224 11.8221 25.6011 11.7195 26.0539C11.5968 26.5983 11.3187 27.0043 11.0497 27.397C10.6857 27.9282 10.3714 28.3871 10.4844 29.1488C10.6284 30.1199 11.473 30.6667 11.8588 30.8688C12.5847 30.3602 13.3466 30.1283 13.7591 30.0322C13.8281 29.5349 14.0329 28.4768 14.6156 27.2881C15.1431 26.212 16.0649 24.8808 17.6405 23.8563C16.4696 24.1017 15.3581 24.5115 14.3186 25.0834C14.2568 25.1175 14.1896 25.1336 14.1233 25.1336C13.9845 25.1336 13.85 25.0629 13.7768 24.9371C13.6688 24.7511 13.7361 24.5152 13.9273 24.4099C15.72 23.4238 17.7101 22.8882 19.8427 22.8175C21.041 22.4285 22.4004 22.2304 23.8863 22.2304C24.3998 22.2304 24.8971 22.2558 25.3794 22.3027C22.5746 21.1042 19.4083 20.8491 15.7733 21.5204C15.5578 21.5597 15.3496 21.4223 15.3086 21.2125C15.2677 21.0025 15.4093 20.8001 15.625 20.7602C20.4655 19.866 24.5246 20.5492 28.0348 22.8484C28.0366 22.8496 28.038 22.8512 28.0398 22.8524C30.9505 23.8329 32.4289 25.8029 33.1567 27.2876C33.7411 28.4799 33.9456 29.541 34.014 30.0365C34.2949 30.1063 34.7347 30.243 35.1844 30.4886C35.4679 29.9244 35.9233 28.6715 35.4462 27.0733C34.6878 24.5323 30.4676 20.2508 23.8185 19.1308C17.1942 18.0161 14.3087 19.466 13.1785 20.4295C12.8509 20.7085 12.5803 21.0184 12.3741 21.3503ZM14.5216 30.3548C14.544 30.6084 14.763 32.7396 15.943 34.8348C17.5943 37.7667 20.2668 39.2534 23.8861 39.2534C27.5054 39.2534 30.1779 37.7668 31.8292 34.8348C33.0095 32.7392 33.2283 30.6077 33.2506 30.3549C33.2342 30.1724 33.1036 28.9647 32.4258 27.5942C31.4553 25.6316 29.8766 24.2768 27.7335 23.5674C26.6021 23.1935 25.3077 23.0039 23.8861 23.0039C22.4627 23.0039 21.168 23.1938 20.0378 23.5684C17.895 24.2777 16.3166 25.6324 15.3462 27.5947C14.6682 28.9657 14.5379 30.1738 14.5216 30.3548ZM36.0906 26.5121C36.6112 26.365 37.5985 25.9369 37.7162 24.7912C37.8455 23.5384 36.8694 21.4844 34.3973 19.72C33.7947 19.29 33.1287 18.8956 32.4175 18.5477C28.6731 16.7151 21.5938 17.0672 21.5227 17.071C21.302 17.0834 21.116 16.9191 21.1041 16.7058C21.0921 16.4925 21.26 16.3102 21.4793 16.2984C21.7782 16.2825 28.8405 15.9309 32.7746 17.8564C33.1138 18.0223 33.443 18.199 33.7614 18.3842C32.6174 16.1115 29.9107 12.7737 23.8862 12.7737C20.1816 12.7737 17.2782 14.0199 15.2563 16.4777C14.4529 17.4544 13.9546 18.4401 13.6628 19.1544C15.4459 18.1641 18.5595 17.4606 23.954 18.3684C26.5237 18.8012 28.6001 19.6499 30.1981 20.5483C32.1316 20.6546 33.8718 21.2449 35.3708 22.3041C35.5485 22.4296 35.588 22.6715 35.459 22.8444C35.3812 22.9485 35.2599 23.0039 35.137 23.0039C35.0561 23.0039 34.9743 22.9799 34.9037 22.93C33.9601 22.2633 32.9104 21.7994 31.769 21.5423C32.0237 21.7232 32.2592 21.9007 32.4743 22.0714C34.1955 23.4364 35.547 25.1041 36.0906 26.5121ZM35.1055 39.7168C35.6655 38.5207 35.3881 37.5503 35.1253 37.0174C34.0245 38.4059 32.4914 39.7291 30.748 40.785C30.6826 40.8245 30.61 40.8434 30.5383 40.8434C30.4055 40.8434 30.2757 40.7786 30.2004 40.6608C30.0844 40.4795 30.1414 40.2409 30.3278 40.1279C32.1777 39.0076 33.7761 37.579 34.8289 36.1048C35.6184 35.0011 36.0357 33.9546 36.0357 33.0782C36.0357 32.3622 35.7191 31.7796 35.0935 31.3462C34.7135 31.081 34.2946 30.9232 33.9952 30.8348C33.8822 31.642 33.5367 33.4027 32.5401 35.1826C31.3026 37.3927 28.7967 40.0271 23.8862 40.0271C18.9757 40.0271 16.4698 37.3927 15.2324 35.1827C14.2328 33.3975 13.8883 31.6318 13.7763 30.828C13.4081 30.9291 12.8416 31.1308 12.3097 31.5066C12.4351 34.9944 14.2019 37.9947 17.566 40.4264C17.7422 40.5537 17.779 40.796 17.6481 40.9676C17.5701 41.0699 17.4501 41.1238 17.3287 41.1238C17.2463 41.1238 17.1631 41.0989 17.0919 41.0475C13.7436 38.6272 11.8868 35.6605 11.5598 32.2193C11.1049 32.8087 10.8741 33.5331 10.8741 34.3839C10.8741 35.3816 11.3761 36.8157 12.2514 38.3167C14.3195 41.8628 18.6074 46.0038 23.8862 46.0038C27.7331 46.0038 31.3998 43.7737 33.5488 41.6862C34.2876 40.9702 34.8549 40.2523 35.1055 39.7168ZM32.3828 59.97C32.4433 59.1755 32.4772 58.3594 32.4808 57.5389C32.4817 57.3258 32.6595 57.1537 32.8783 57.1537C32.8789 57.1537 32.8795 57.1537 32.8801 57.1537C33.0996 57.1547 33.2768 57.3286 33.2759 57.5422C33.2724 58.3611 33.2391 59.1756 33.1798 59.9701H35.2691C35.1597 58.8756 34.9758 57.8052 34.7193 56.7845C34.6672 56.5769 34.7978 56.3675 35.0111 56.3168C35.224 56.2659 35.4395 56.3931 35.4916 56.6007C35.7628 57.6803 35.9556 58.813 36.0676 59.9702H39.1036C37.8664 54.8858 35.5827 50.8895 32.3069 48.0697C32.4414 49.4255 32.3901 50.5988 32.1508 51.9268C32.1212 52.0913 31.9864 52.2187 31.8165 52.2428C31.3749 52.3054 30.9512 52.3871 30.5506 52.4849C30.5399 55.1702 30.3862 57.6272 30.0811 59.9702H32.3828V59.97ZM28.5514 52.3442C29.0149 52.1357 29.5181 51.957 30.047 51.8131C30.477 51.6959 30.9358 51.5977 31.4145 51.5206C31.62 50.2588 31.641 49.1578 31.4801 47.8174C30.5086 48.424 29.3663 48.9208 28.1303 49.2717C27.7761 50.5014 27.4623 51.7912 27.1932 53.121C27.6057 52.8259 28.0587 52.5652 28.5514 52.3442ZM24.5471 56.6914V59.9699H25.432C25.5661 58.3868 25.7497 56.8442 25.9798 55.3806C26.0458 54.9598 26.1201 54.5203 26.2009 54.074C26.4876 52.4899 26.8374 50.9518 27.2419 49.4937C26.9616 49.5551 26.6786 49.6091 26.3944 49.6551C25.4927 50.6524 24.7135 52.4189 24.292 54.4296C24.4563 55.2583 24.5471 56.0588 24.5471 56.6914ZM26.1275 48.9147C26.6592 48.8337 27.1888 48.7233 27.7014 48.5863C29.1693 48.1934 30.5011 47.5863 31.5531 46.8307C32.0593 46.4675 32.4805 46.084 32.8052 45.6907C33.714 44.5919 33.7155 43.4004 33.6057 42.7016C31.2989 44.7508 27.6862 46.7775 23.8861 46.7775C18.6715 46.7775 14.394 43.0314 12.0676 39.5141C11.9779 40.255 12.0214 41.4316 12.732 42.8508C13.3399 44.0645 14.7358 45.4763 16.466 46.6275C16.4704 46.6304 16.4749 46.6335 16.4791 46.6366C17.6156 47.3916 18.8144 47.987 20.0428 48.4069C20.5566 48.5828 21.0758 48.7268 21.5856 48.835C22.3657 49.0004 23.1396 49.0843 23.8861 49.0843C24.632 49.0841 25.3861 49.027 26.1275 48.9147ZM21.7926 55.3806C22.0228 56.8443 22.2063 58.3869 22.3404 59.97H23.752V56.6914C23.752 56.0867 23.6612 55.3077 23.4963 54.4982C23.0638 52.3882 22.2432 50.5564 21.2915 49.5621C21.0266 49.5033 20.76 49.4357 20.4931 49.3594C20.9134 50.8595 21.2756 52.4417 21.5715 54.074C21.6523 54.5204 21.7266 54.9599 21.7926 55.3806ZM19.2207 52.344C19.7134 52.565 20.1664 52.8257 20.5789 53.1207C20.2947 51.7168 19.9612 50.3579 19.583 49.0659C18.5255 48.6882 17.4909 48.1891 16.4986 47.5749C16.2034 48.9146 16.1573 50.2127 16.3591 51.5207C16.8373 51.5979 17.2957 51.696 17.7252 51.8129C18.2543 51.957 18.7575 52.1357 19.2207 52.344ZM11.704 59.97C11.8169 58.8089 12.0099 57.6767 12.2807 56.6004C12.3329 56.393 12.5482 56.2652 12.7614 56.3167C12.9746 56.3675 13.1051 56.5768 13.0529 56.7844C12.7969 57.8019 12.6124 58.8717 12.5022 59.9699H14.5927C14.5341 59.1808 14.5006 58.3673 14.4965 57.5424C14.4954 57.3287 14.6725 57.1546 14.892 57.1535C14.8927 57.1535 14.8934 57.1535 14.8941 57.1535C15.1127 57.1535 15.2904 57.3254 15.2916 57.5383C15.2959 58.3655 15.3301 59.1806 15.39 59.9698H17.6912C17.3861 57.6267 17.2324 55.1697 17.2217 52.4845C16.8212 52.3868 16.3975 52.305 15.9558 52.2424C15.7859 52.2183 15.6512 52.091 15.6215 51.9265C15.3858 50.6188 15.3861 49.2817 15.6193 47.9384C12.2615 50.7616 9.92657 54.8014 8.66928 59.9698H11.704V59.97Z" fill="#85c225"/>
<path d="M18.3137 33.2962C19.1056 33.2128 19.7198 32.7367 20.3138 32.2761C20.8142 31.8882 21.2869 31.5219 21.8408 31.4146C22.7238 31.2432 23.4946 31.6542 23.8862 31.9239C24.2777 31.6543 25.0489 31.2433 25.9316 31.4146C26.4856 31.5219 26.9582 31.8882 27.4586 32.2761C28.0526 32.7367 28.6668 33.2128 29.4587 33.2962C29.6159 33.3128 29.748 33.4184 29.7953 33.5652C29.8425 33.712 29.7959 33.8721 29.6765 33.9729C29.6079 34.031 27.9765 35.3927 26.2714 35.3927C25.0888 35.3927 24.2899 34.9104 23.8862 34.5857C23.4824 34.9103 22.6836 35.3927 21.501 35.3927C19.7959 35.3927 18.1646 34.031 18.0959 33.9729C17.9765 33.8721 17.9299 33.712 17.9771 33.5652C18.0244 33.4184 18.1566 33.3128 18.3137 33.2962Z" fill="#85c225"/>
<path d="M51.6786 59.8769C51.5944 59.9301 51.5698 59.864 51.52 59.8208C51.4883 59.9242 51.4216 59.9614 51.316 59.9159C51.316 59.6417 51.2918 59.3663 51.3212 59.0961C51.3773 58.5798 51.264 58.0767 51.2226 57.5684C51.1631 56.839 51.0722 56.1118 51.0157 55.3822C50.8578 53.3441 50.8238 51.3033 50.9009 49.261C50.9175 48.8213 50.9421 48.3819 50.9632 47.94C50.0442 47.5982 49.5759 46.8658 49.1462 46.102C48.904 45.6715 48.7273 45.2149 48.5718 44.7439C48.6151 44.7956 48.6588 44.847 48.7015 44.8991C48.9772 45.2356 49.2922 45.5326 49.6582 45.7845C50.6015 46.4339 50.6464 46.4936 51.0579 47.4943C51.1125 47.3153 51.1567 47.1549 51.2105 46.9974C51.4134 46.4033 51.7918 45.9197 52.2851 45.5117C52.6835 45.1821 53.0865 44.8573 53.4867 44.5309C53.4897 44.8247 53.1013 45.8227 52.7557 46.4077C52.3994 47.0109 52.0834 47.3331 51.3198 47.8723C51.0871 51.0914 51.2241 54.3037 51.5339 57.5167C51.9493 55.4074 52.5479 53.3459 53.3803 51.3456C52.76 50.6609 52.6926 49.8396 52.6923 49.0042C52.6921 48.6233 52.7409 48.2444 52.7978 47.8672C52.803 47.8328 52.8026 47.7945 52.8543 47.7692C52.9482 48.3789 53.1864 48.9362 53.5047 49.4665C53.8108 49.9764 53.8776 50.52 53.733 51.1052C53.8479 51.0536 53.8899 50.9629 53.9555 50.8966C54.4026 50.4451 54.941 50.1397 55.577 49.9884C56.0761 49.8698 56.5771 49.7579 57.0784 49.6316C56.1441 50.5803 55.1665 51.4553 53.6613 51.5333C53.4168 52.1107 53.1921 52.7158 52.9861 53.3268C52.4567 54.8972 52.0474 56.4956 51.7386 58.1172C51.65 58.5824 51.6009 59.0463 51.6782 59.518C51.6978 59.6374 51.7196 59.7636 51.6786 59.8769Z" fill="#85c225"/>
<path d="M50.8626 59.9467C50.81 59.9839 50.7648 60.0142 50.6923 59.9931C50.1891 57.137 49.5895 54.2994 48.5102 51.5738C47.8255 51.5886 47.1933 51.3465 46.6233 51.007C46.0278 50.6523 45.449 50.2383 44.9763 49.7441C45.0352 49.7032 45.3441 49.8767 45.4264 49.9071C45.5982 49.9705 45.774 50.0241 45.9518 50.0706C46.2874 50.1584 46.6325 50.2016 46.9691 50.2827C47.6057 50.4362 47.999 50.7895 48.4655 51.1931C48.28 50.567 48.2095 49.9749 48.3752 49.3366C48.539 48.7052 48.8229 48.1046 49.006 47.4775C49.4061 48.5852 49.5876 50.4368 48.8079 51.3957C49.8956 54.1531 50.5483 57.0073 50.8626 59.9467Z" fill="#85c225"/>
<path d="M53.4212 42.527C53.358 42.9651 53.343 43.4395 53.193 43.8608C53.052 44.2568 52.7688 44.5392 52.4481 44.8151C52.1287 45.0898 51.796 45.333 51.5473 45.6713C51.3059 45.9997 51.1399 46.3711 51.0203 46.7528C50.8436 45.9547 49.9985 45.662 49.4715 45.1069C49.2019 44.823 48.99 44.4954 48.8215 44.1501C48.6516 43.8018 48.4468 43.378 48.418 42.993C49.1318 43.8672 50.7776 44.2225 50.9498 45.4488C51.133 44.803 51.2803 44.1848 51.7387 43.6522C52.1854 43.133 52.8407 42.8852 53.4212 42.527Z" fill="#85c225"/>
<path d="M51.205 40.1052C51.1324 39.6702 51.0887 39.0585 50.7628 38.7159C50.6072 38.5523 50.3921 38.4389 50.217 38.2941C50.0323 38.1413 49.8617 37.9727 49.7181 37.7845C49.4105 37.3815 49.2548 36.9033 49.2461 36.4082C49.2372 35.8938 49.3419 35.2426 49.642 34.8017C49.7307 35.204 49.7876 35.6331 49.929 36.0223C50.069 36.4075 50.3414 36.7035 50.5565 37.0501C50.7681 37.3911 50.932 37.756 51.0626 38.1307C51.1785 38.4631 51.2155 38.8515 51.3657 39.1681C51.5299 38.4695 51.7162 37.8351 52.1643 37.2435C52.5718 36.7056 53.0614 36.2437 53.1786 35.5628C53.3276 36.3878 53.2742 37.2679 52.9073 38.0386C52.5126 38.8675 51.6689 39.3229 51.205 40.1052Z" fill="#85c225"/>
<path d="M48.9894 37.6339C49.5068 38.1656 50.145 38.6103 50.5711 39.2161C50.9638 39.7743 51.1006 40.3939 51.2017 41.0451C51.3257 40.7054 51.4341 40.3665 51.6385 40.0596C51.8403 39.7566 52.1055 39.5474 52.3931 39.3216C52.68 39.0965 52.9246 38.8286 53.1326 38.5372C53.2285 38.4029 53.3164 38.2638 53.399 38.1219C53.449 38.0359 53.5455 37.7409 53.6506 37.7165C53.6581 38.4865 53.5642 39.2916 53.1186 39.9568C52.8822 40.3097 52.566 40.573 52.2105 40.8163C51.8177 41.0851 51.3149 41.3973 51.0969 41.8206C51.0298 41.7504 51.0455 41.6597 51.0288 41.5744C51.0091 41.4738 50.9662 41.3722 50.9222 41.2791C50.8457 41.117 50.7424 40.9674 50.6234 40.8302C50.3205 40.4807 49.9199 40.219 49.6027 39.8824C49.0398 39.2853 48.897 38.4066 48.9894 37.6339Z" fill="#85c225"/>
<path d="M44.1949 43.7477C44.2629 43.6505 44.101 43.3973 44.0677 43.2929C44.0218 43.1489 43.9832 43.0026 43.9522 42.8552C43.8812 42.5175 43.8511 42.1728 43.8613 41.8287C43.8817 41.1401 44.0856 40.4657 43.8027 39.7967C44.3965 40.4151 44.8007 41.2843 44.9219 42.106C45.0526 42.9921 44.6333 43.8202 44.6715 44.7066C44.3573 44.2784 43.9114 43.7403 43.3476 43.6126C42.8402 43.4977 42.3697 43.4457 41.9143 43.1798C41.5202 42.9498 41.2005 42.6263 40.9633 42.2528C40.8338 42.049 40.7285 41.8321 40.642 41.6092C40.5488 41.3691 40.4179 41.0683 40.4179 40.8121C40.5489 40.8104 40.7556 41.129 40.834 41.215C40.9601 41.3532 41.0876 41.4885 41.233 41.6094C41.5454 41.8693 41.9041 42.0104 42.2688 42.1902C43.03 42.5654 43.6405 43.1401 44.1949 43.7477Z" fill="#85c225"/>
<path d="M43.9191 48.2704C44.9423 48.7557 46.5598 48.3938 47.307 49.3599C47.1804 48.7412 46.9887 48.175 47.0753 47.5345C47.1603 46.9069 47.5388 46.4048 47.85 45.8609C48.2368 46.5436 48.5809 47.2896 48.344 48.0729C48.227 48.4599 48.0414 48.8172 47.9674 49.2177C47.8887 49.6434 47.9515 50.0399 47.9998 50.4637C47.5115 49.8357 46.6072 49.9264 45.9083 49.6715C45.1575 49.3977 44.4037 48.8774 43.9191 48.2704Z" fill="#85c225"/>
<path d="M51.5267 33C52.0379 33.7401 52.4614 34.6576 52.3554 35.5595C52.3005 36.0265 52.0876 36.4273 51.8786 36.8462C51.7702 37.0634 51.6668 37.2829 51.5732 37.5062C51.4908 37.7027 51.439 37.9207 51.3273 38.1034C51.3003 37.6636 51.0823 37.2733 50.8431 36.9046C50.5615 36.4706 50.3352 36.0905 50.341 35.5647C50.3516 34.6056 50.933 33.7397 51.5267 33Z" fill="#85c225"/>
<path d="M45.1948 45.4985C45.1166 45.1469 45.0078 44.8063 45.008 44.4437C45.0083 44.084 45.134 43.7908 45.2484 43.455C45.4688 42.8079 45.4197 42.1321 45.3472 41.4667C45.8166 42.1239 46.1942 42.9291 46.1704 43.7336C46.158 44.151 46.0327 44.5309 45.8648 44.9135C45.6893 45.3135 45.5619 45.7294 45.4565 46.1502C44.8542 45.4286 43.8944 45.4439 43.0769 45.0846C42.3451 44.763 41.8634 44.1845 41.5533 43.4951C42.3101 43.7237 43.1307 43.8966 43.8275 44.2656C44.1158 44.4183 44.3738 44.6144 44.6027 44.8386C44.7171 44.9508 44.8237 45.0696 44.9246 45.1927C44.9945 45.278 45.0816 45.4552 45.1948 45.4985Z" fill="#85c225"/>
<path d="M54.5796 49.346C54.952 48.8939 55.406 48.5036 55.9727 48.2801C56.5791 48.0409 57.2252 48.1642 57.8414 47.991C57.4499 48.5813 57.0148 49.2036 56.2852 49.4486C55.8894 49.5815 55.4647 49.5853 55.0714 49.7364C54.6604 49.8943 54.3192 50.1539 54.0492 50.4834C54.2621 49.7182 53.6576 49.0965 53.4697 48.388C53.2756 47.6557 53.3583 46.9329 53.5076 46.2022C53.7432 46.738 54.0169 47.2537 54.2825 47.7767C54.4071 48.022 54.5365 48.2688 54.6046 48.5344C54.6787 48.824 54.6302 49.0603 54.5796 49.346Z" fill="#85c225"/>
<path d="M41.0321 38.4331C41.7777 38.8254 42.5359 39.2771 42.993 39.9777C43.2408 40.3574 43.3705 40.7686 43.3986 41.2123C43.4312 41.7265 43.5041 42.2354 43.5707 42.7468C43.1867 42.3859 42.825 42.1467 42.3455 41.9115C41.9814 41.7329 41.6762 41.4667 41.463 41.1363C40.9333 40.3156 41.0182 39.3518 41.0321 38.4331Z" fill="#85c225"/>
<path d="M58.185 43.4941C58.7353 43.0041 59.251 42.5253 59.9481 42.2219C60.5633 41.9542 61.2588 41.8281 61.7022 41.3033C61.6637 41.6551 61.2962 42.0761 61.0706 42.3466C60.8108 42.6581 60.5022 42.9335 60.1481 43.1486C59.7874 43.3678 59.3917 43.5117 58.976 43.6075C58.4645 43.7252 57.9997 43.9085 57.5751 44.2063C57.6682 43.966 57.7647 43.7266 57.8547 43.4852C57.9526 43.2226 57.8932 43.079 57.7636 42.837C57.5566 42.4509 57.434 42.0207 57.4809 41.5863C57.5698 40.7622 58.2352 40.0059 58.9487 39.5658C58.8237 39.8907 58.6724 40.2167 58.5917 40.5544C58.5105 40.8946 58.5639 41.2027 58.585 41.5445C58.6269 42.2224 58.4283 42.8644 58.185 43.4941Z" fill="#85c225"/>
<path d="M48.7244 39.6581C48.9909 39.9657 49.2365 40.3107 49.5978 40.5272C49.8987 40.7075 50.2257 40.8251 50.4855 41.0632C50.7014 41.261 50.8583 41.506 50.9546 41.7741C51.0064 41.9181 51.0408 42.0675 51.0626 42.2181C51.0847 42.3707 51.0554 42.556 51.1102 42.6995C51.4048 42.1978 51.678 41.6922 52.1416 41.3064C52.5973 40.9272 53.1386 40.6639 53.5842 40.2647C53.6057 40.6116 53.4689 41.0344 53.3436 41.3589C53.2216 41.675 53.0446 41.9709 52.8141 42.2282C52.5911 42.4771 52.3222 42.6856 52.0266 42.8541C51.869 42.9439 51.7044 43.0222 51.5352 43.0907C51.349 43.1661 51.147 43.2099 51.0135 43.362C51.0759 43.0077 50.8224 42.7733 50.5885 42.5356C50.2989 42.2412 49.9409 42.0283 49.6406 41.7469C49.0473 41.191 48.8477 40.4255 48.6918 39.678C48.7027 39.6713 48.7136 39.6647 48.7244 39.6581Z" fill="#85c225"/>
<path d="M56.8928 41.7553C57.3435 42.8102 57.6968 43.8554 57.0975 44.9592C57.1141 44.9624 57.1306 44.9657 57.1471 44.969C57.6388 44.4693 58.1454 44.0693 58.8761 43.9382C59.6465 43.7998 60.3015 43.4842 60.9704 43.1096C61.079 43.2418 60.3878 43.919 60.2772 44.0246C59.9814 44.3068 59.6395 44.5453 59.2595 44.7179C58.4107 45.1034 57.3464 44.9372 56.6467 45.6022C56.8198 44.9107 56.3699 44.2722 56.2307 43.6151C56.0884 42.9428 56.4713 42.2734 56.8928 41.7553Z" fill="#85c225"/>
<path d="M46.7481 43.8552C47.5015 45.2083 47.2273 46.4566 46.3171 47.6423C46.2213 47.5524 46.1874 47.3714 46.1429 47.2552C45.8131 47.0757 45.4491 46.9655 45.0786 46.888C44.7147 46.8118 44.3348 46.7878 43.9868 46.6554C43.3094 46.3978 42.8431 45.8586 42.3727 45.3582C42.4425 45.2803 42.7609 45.4797 42.8381 45.5087C43.005 45.5714 43.1765 45.6217 43.3517 45.6596C43.7176 45.7387 44.0827 45.7129 44.4489 45.7661C45.1714 45.8711 45.5902 46.4141 46.0366 46.8976C45.9781 46.3833 45.9276 45.8678 46.088 45.364C46.1699 45.1069 46.3182 44.883 46.4387 44.6418C46.5652 44.3885 46.6669 44.1244 46.7481 43.8552Z" fill="#85c225"/>
<path d="M40 50.2444C40.0844 50.2044 40.1493 50.2304 40.2168 50.2459C41.9807 50.6514 43.5264 51.451 44.9145 52.539C46.5396 53.8129 47.7335 55.4029 48.7268 57.1392C49.1129 57.8141 49.4689 58.5032 49.7696 59.2164C49.7918 59.2691 49.8106 59.3231 49.8173 59.3815C49.6165 59.0066 49.4166 58.6331 49.205 58.2649C47.5332 55.356 45.1642 53.0882 42.1279 51.4309C41.4891 51.0823 40.8393 50.7532 40.1852 50.431C40.1073 50.3926 40.0047 50.3667 40 50.2444Z" fill="#85c225"/>
<path d="M61.5689 38.7659C61.5872 39.9118 61.3175 40.9097 60.2951 41.6045C59.8153 41.9307 59.29 42.1964 58.8367 42.5748C59.0166 42.0962 58.9056 41.6071 58.9418 41.1268C58.9769 40.6607 59.2059 40.2755 59.5344 39.9393C60.0833 39.3774 60.7853 39.0479 61.5689 38.7659Z" fill="#85c225"/>
<path d="M54.5179 44.596C54.5709 44.8481 54.615 45.1035 54.6815 45.3529C54.7515 45.6158 54.9026 45.8071 55.0474 46.0357C55.3285 46.4793 55.4992 46.9741 55.4603 47.495C55.9605 47.1658 56.4456 46.8421 57.0388 46.6785C57.316 46.602 57.6024 46.5584 57.891 46.547C58.2319 46.5334 58.5538 46.4659 58.8912 46.4282C58.0668 47.573 56.8359 48.014 55.4476 47.6909C55.3658 47.995 55.2137 48.2729 55.0412 48.5632C54.7515 47.933 54.3721 47.2903 54.2419 46.6093C54.1133 45.9367 54.2692 45.2283 54.5179 44.596Z" fill="#85c225"/>
<path d="M60.0729 44.7704C59.6338 45.4181 59.0216 45.9559 58.2268 46.1794C57.7718 46.3074 57.2872 46.3207 56.8213 46.4006C56.6068 46.4373 56.2797 46.4419 56.1229 46.5985C55.9777 46.7435 55.8775 46.976 55.7692 47.1472C55.7275 46.827 55.6962 46.5084 55.5946 46.1985C55.4865 45.8685 55.298 45.5732 55.2242 45.2318C55.0844 44.5849 55.2287 43.8025 55.6238 43.2518C55.6816 43.5208 55.719 43.8048 55.8108 44.0656C55.9019 44.3246 56.102 44.5229 56.2187 44.7702C56.4563 45.2733 56.3776 45.7628 56.244 46.2777C56.3838 46.2169 56.5064 46.0486 56.6262 45.9532C56.7583 45.8478 56.8994 45.7528 57.0486 45.67C57.3344 45.5117 57.6469 45.4006 57.9703 45.3333C58.3304 45.2583 58.6974 45.2473 59.0535 45.1501C59.4067 45.0537 59.7362 44.9064 60.0729 44.7704Z" fill="#85c225"/>
<path d="M63 51.6399C61.1852 51.773 59.4096 52.2401 57.877 53.1826C56.4008 54.0903 55.2166 55.3789 54.2312 56.742C53.6485 57.5482 53.1592 58.3991 52.7019 59.2727C52.5983 59.1805 53.1142 58.3264 53.1834 58.1919C53.3896 57.7908 53.6086 57.3955 53.8418 57.0078C54.3147 56.2219 54.8465 55.467 55.4427 54.759C56.5676 53.4232 57.9115 52.2389 59.6908 51.7571C60.2477 51.6063 60.8247 51.5238 61.4038 51.5074C61.9227 51.4927 62.5023 51.4894 63 51.6399Z" fill="#85c225"/>
<path d="M51.0126 44.5871C50.434 44.0646 49.7039 43.6804 49.2114 43.0756C48.7692 42.5324 48.566 41.8671 48.3789 41.2168C48.6343 41.4773 48.8635 41.7321 49.1773 41.9362C49.5065 42.1504 49.8643 42.3047 50.1646 42.5593C50.7679 43.0706 51.1465 43.8159 51.0126 44.5871Z" fill="#85c225"/>
<path d="M42.963 46.7687C43.3356 46.9051 43.7166 47.0805 44.1202 47.1088C44.5442 47.1386 44.9241 47.1269 45.3373 47.2478C46.087 47.4672 46.6097 47.8805 46.8829 48.5773C46.1603 48.39 45.3908 48.3494 44.699 48.0623C44.027 47.7835 43.4448 47.2807 42.963 46.7687Z" fill="#85c225"/>
</svg>
