<svg width="30" height="30" viewBox="0 0 69 69" fill="none" xmlns="http://www.w3.org/2000/svg">
<path d="M38.3333 31C38.3333 35.0428 35.0428 38.3333 31 38.3333C26.9572 38.3333 23.6667 35.0428 23.6667 31C23.6667 26.9572 26.9572 23.6667 31 23.6667C35.0428 23.6667 38.3333 26.9572 38.3333 31Z" fill="#FFFFFF" stroke="#FFFFFF" stroke-width="1.33333"/>
<path d="M15.6667 54.2555C15.6667 47.9594 18.4293 42.2655 23.006 38.9791C25.3143 41.1185 28.1163 42.2652 31.1071 42.2652C34.098 42.2652 36.9007 41.1186 39.2091 38.9791C43.7849 42.2648 46.5476 47.9593 46.5476 54.2555C46.5476 54.2926 46.5383 54.3184 46.5301 54.3334H15.6844C15.6761 54.3184 15.6667 54.2926 15.6667 54.2555Z" fill="#FFFFFF" stroke="#FFFFFF" stroke-width="1.33333"/>
<line x1="54.9325" y1="17" x2="39.0069" y2="17" stroke="#FFFFFF" stroke-width="2" stroke-linecap="round"/>
<line x1="55" y1="24.4285" x2="41.0863" y2="24.4285" stroke="#FFFFFF" stroke-width="2" stroke-linecap="round"/>
<line x1="55" y1="31.8571" x2="46.3908" y2="31.8571" stroke="#FFFFFF" stroke-width="2" stroke-linecap="round"/>
<line x1="55" y1="39.2858" x2="49.9272" y2="39.2858" stroke="#FFFFFF" stroke-width="2" stroke-linecap="round"/>
</svg>
