<svg width="110" height="110" viewBox="0 0 49 51" fill="none" xmlns="http://www.w3.org/2000/svg">
<path d="M21.5228 22.5908C21.5228 24.2598 20.1019 25.6502 18.3021 25.6502C16.5027 25.6502 15.0818 24.2599 15.0818 22.5908C15.0818 20.9221 16.5026 19.5317 18.3021 19.5317C20.102 19.5317 21.5228 20.9222 21.5228 22.5908Z" stroke="#85c225"/>
<path d="M30.2186 17.2205C30.2186 18.8895 28.7973 20.2804 26.9974 20.2804C25.1976 20.2804 23.7762 18.8895 23.7762 17.2205C23.7762 15.5514 25.1976 14.1606 26.9974 14.1606C28.7973 14.1606 30.2186 15.5514 30.2186 17.2205Z" stroke="#85c225"/>
<path d="M39.4648 14.5177C39.4648 16.1871 38.0435 17.5776 36.2436 17.5776C34.4437 17.5776 33.0224 16.1871 33.0224 14.5177C33.0224 12.8487 34.4436 11.4582 36.2436 11.4582C38.0435 11.4582 39.4648 12.8487 39.4648 14.5177Z" stroke="#85c225"/>
<path d="M20.9747 14.5177C20.9747 16.1872 19.5539 17.5776 17.7536 17.5776C15.9537 17.5776 14.5328 16.1872 14.5328 14.5177C14.5328 12.8486 15.9537 11.4582 17.7536 11.4582C19.5539 11.4582 20.9747 12.8486 20.9747 14.5177Z" stroke="#85c225"/>
<path d="M15.9245 38.8636V39.3538V46.5271C15.9245 47.1611 16.4544 47.695 17.1318 47.695H19.4737C20.1509 47.695 20.6802 47.1615 20.6802 46.5271V46.527L20.6806 39.3538L20.6807 38.864L21.1703 38.8539C21.2931 38.8514 21.4115 38.8307 21.5245 38.7948L21.5245 30.6666C21.5245 30.6665 21.5245 30.6664 21.5245 30.6663V30.6659L15.9245 38.8636ZM15.9245 38.8636L15.4345 38.8539C14.7392 38.8401 14.2185 38.3046 14.2185 37.6897V28.2346C14.2185 27.61 14.7542 27.0663 15.462 27.0663H21.1418C21.8507 27.0663 22.3865 27.6103 22.3865 28.2346V28.9632L15.9245 38.8636Z" stroke="#85c225"/>
<path d="M12.8018 19.7263C12.8018 21.3954 11.3809 22.7858 9.58157 22.7858C7.78169 22.7858 6.36084 21.3954 6.36084 19.7263C6.36084 18.0577 7.78165 16.6673 9.58157 16.6673C11.381 16.6673 12.8018 18.0577 12.8018 19.7263Z" stroke="#85c225"/>
<path d="M6.7402 24.2043H6.73998C6.03294 24.204 5.4967 24.7479 5.4967 25.3714V34.8277C5.4967 35.4423 6.01751 35.9778 6.71221 35.991L7.20273 36.0003V36.4909V43.6642C7.20273 44.2984 7.73274 44.8325 8.41002 44.8325H10.751C11.4283 44.8325 11.9583 44.2985 11.9583 43.6642V36.4909V36.0018L12.4472 35.991C12.5707 35.9883 12.6894 35.9677 12.8021 35.9318V27.8022V27.8018H13.3021L6.7402 24.2043ZM6.7402 24.2043H12.42C13.1287 24.2043 13.6639 24.748 13.6639 25.3714V26.1008L6.7402 24.2043Z" stroke="#85c225"/>
<path d="M26.998 22.3354H26.9993C28.7989 22.3354 30.2205 23.7264 30.2205 25.3945C30.2205 27.063 28.7989 28.4544 26.998 28.4544C25.1996 28.4544 23.7777 27.0632 23.7777 25.3945C23.7777 23.7259 25.1993 22.3354 26.998 22.3354Z" stroke="#85c225"/>
<path d="M38.9134 22.5908C38.9134 24.2599 37.4929 25.6502 35.6931 25.6502C33.8933 25.6502 32.4728 24.2599 32.4728 22.5908C32.4728 20.9221 33.8933 19.5317 35.6931 19.5317C37.4929 19.5317 38.9134 20.9221 38.9134 22.5908Z" stroke="#85c225"/>
<path d="M38.5334 27.0677H38.5541C39.2502 27.0781 39.7769 27.617 39.7788 28.2364L39.7779 37.6905V37.6906C39.7779 38.3053 39.2574 38.8413 38.5631 38.8548L38.0728 38.8643V39.3547V46.5266C38.0728 47.1617 37.5424 47.6958 36.865 47.6958H34.5227C33.8463 47.6958 33.3162 47.1617 33.3162 46.5266V39.3542V38.8632L32.8252 38.8543C32.7033 38.8521 32.585 38.8317 32.4719 38.7958V30.6664C32.4719 29.9644 32.1271 29.3553 31.6098 28.9645V28.2361C31.6098 27.6118 32.1459 27.0677 32.8546 27.0677H38.5334Z" stroke="#85c225"/>
<path d="M47.6352 19.7263C47.6352 21.3954 46.2143 22.7858 44.4144 22.7858C42.615 22.7858 41.1942 21.3954 41.1942 19.7263C41.1942 18.0577 42.615 16.6673 44.4144 16.6673C46.2143 16.6673 47.6352 18.0577 47.6352 19.7263Z" stroke="#85c225"/>
<path d="M42.0375 36.4901V36.0004L41.5479 35.9902C41.425 35.9877 41.3067 35.9673 41.1946 35.9318V27.8006C41.1946 27.0991 40.848 26.4901 40.3315 26.0999V25.371C40.3315 24.7466 40.867 24.2031 41.5755 24.2031H47.2544C47.9623 24.2031 48.4988 24.7469 48.5 25.3707C48.5 25.3709 48.5 25.371 48.5 25.3712L48.5 34.826C48.5 35.4403 47.979 35.9767 47.2838 35.9902L46.7935 35.9997V36.4901V43.6621C46.7935 44.2971 46.2631 44.8312 45.5858 44.8312H43.2448C42.5678 44.8312 42.0375 44.2969 42.0375 43.6621V36.4901Z" stroke="#85c225"/>
<path d="M30.2297 29.9372C30.1004 29.8949 29.9703 29.8714 29.8384 29.8714H24.1581C24.0292 29.8714 23.8981 29.8965 23.7556 29.9418C23.2511 30.1062 22.915 30.5443 22.915 31.0393V40.4948C22.915 40.839 23.0791 41.152 23.3534 41.3725L23.3536 41.3726C23.5679 41.545 23.8365 41.653 24.1327 41.6594L24.6219 41.67V42.1593V49.3312C24.6219 49.4113 24.6303 49.4889 24.6461 49.5649L24.647 49.569L24.647 49.569C24.6593 49.6302 24.6807 49.6963 24.7112 49.7684L24.72 49.789L24.7246 49.8033C24.743 49.8435 24.765 49.8845 24.7899 49.9252L24.7982 49.9384C24.7987 49.9394 24.7994 49.9405 24.8002 49.9418C24.8281 49.9857 24.8616 50.03 24.9012 50.0765C24.902 50.0773 24.9031 50.0784 24.9044 50.0797L24.9225 50.0972C24.9303 50.1048 24.9408 50.1153 24.9524 50.1276L24.9535 50.1288C24.9825 50.1599 25.0097 50.1862 25.0346 50.2074C25.0485 50.2186 25.0642 50.2301 25.0902 50.249L25.0977 50.2544L25.0976 50.2545C25.1296 50.2786 25.1612 50.3003 25.1927 50.3195C25.2214 50.3366 25.2358 50.3447 25.248 50.3506L25.257 50.3551L25.2659 50.3599L30.2297 29.9372ZM30.2297 29.9372L30.2607 29.9478C30.7538 30.1168 31.0817 30.5511 31.0817 31.0393V40.4956C31.0817 40.8377 30.9172 41.1524 30.6429 41.3737C30.4288 41.5458 30.1594 41.6538 29.864 41.6602L29.3749 41.6709V42.1601V49.3321C29.3749 49.4118 29.3665 49.4898 29.3506 49.5657C29.3367 49.6325 29.3148 49.7 29.2862 49.7666L29.2791 49.783L29.2734 49.7996C29.2545 49.8415 29.2341 49.8808 29.2116 49.9184C29.2055 49.9275 29.1996 49.937 29.1938 49.947C29.1662 49.9899 29.1341 50.0324 29.0955 50.0774C29.0945 50.0785 29.0926 50.0804 29.0895 50.0835L29.0831 50.0898L29.0746 50.098C29.0685 50.104 29.0605 50.1119 29.0519 50.1207L29.0518 50.1205L29.0431 50.1298C29.0173 50.1576 28.9888 50.185 28.9589 50.211C28.9454 50.222 28.9292 50.2342 28.9085 50.2491L28.9085 50.2491L28.902 50.2539C28.8713 50.2768 28.8391 50.2988 28.805 50.3202C28.7995 50.3234 28.7947 50.3262 28.7904 50.3287C28.7669 50.3424 28.7596 50.3467 28.7497 50.3515L28.7398 50.3564L28.73 50.3617C28.7062 50.3748 28.6765 50.3883 28.6299 50.4075C28.6004 50.4192 28.5791 50.4277 28.5595 50.4347C28.5238 50.4461 28.4835 50.4565 28.4371 50.4667C28.412 50.4718 28.3897 50.4773 28.3761 50.4806C28.3688 50.4824 28.3635 50.4837 28.3594 50.4847C28.2902 50.4947 28.228 50.5 28.1684 50.5H25.827C25.7664 50.5 25.7044 50.4945 25.6414 50.4847C25.6392 50.4842 25.6366 50.4835 25.6332 50.4827L25.6221 50.4799C25.6079 50.4764 25.5847 50.4706 25.5579 50.4654C25.5114 50.4551 25.4714 50.4447 25.4368 50.4334C25.4181 50.4269 25.3974 50.4188 25.3701 50.4076L30.2297 29.9372ZM29.2658 49.8226C29.2657 49.8231 29.2658 49.8227 29.2661 49.8219L29.2658 49.8226Z" stroke="#85c225"/>
<path d="M22.1487 13.6609H23.624V7.36102H29.5381V0H16.2362V7.36102H22.1485L22.1487 13.6609Z" fill="#85c225"/>
<path d="M41.6052 15.7656H43.0805V9.46579H48.9941V2.10434H35.6934V9.46579H41.6057L41.6052 15.7656Z" fill="#85c225"/>
<path d="M5.91295 15.7656H7.38776V9.46579H13.3019V2.10434H0V9.46579H5.91272L5.91295 15.7656Z" fill="#85c225"/>
</svg>
