<svg width="110" height="110" viewBox="0 0 56 59" fill="none" xmlns="http://www.w3.org/2000/svg">
<path d="M55.9701 27.074C55.9041 26.9174 54.7134 24.177 50.459 19.7429C50.5411 19.7429 50.6235 19.7174 50.6915 19.6679C50.9693 19.4638 51.2167 19.2297 51.4254 18.9711C52.9823 17.0539 52.5655 13.9858 50.4975 12.131C50.2299 11.8889 49.926 11.6682 49.5978 11.4746C49.4634 11.3952 49.291 11.404 49.165 11.4967C48.8885 11.7016 48.642 11.9353 48.4326 12.193C48.2646 12.3999 48.124 12.6228 48.0013 12.8535C48.2604 10.9898 47.3208 8.92367 45.4983 7.73854C45.1945 7.54157 44.8611 7.36986 44.5064 7.22796C44.3592 7.17072 44.1917 7.2042 44.081 7.31521C43.8358 7.56316 43.6348 7.82494 43.4661 8.11523C42.2308 10.2461 43.1281 13.2133 45.4637 14.732C45.7705 14.9307 46.1042 15.102 46.4563 15.2413C46.5029 15.2596 46.553 15.2691 46.6016 15.2691C46.7037 15.2691 46.8051 15.2292 46.8788 15.1536C47.12 14.9117 47.3272 14.643 47.4946 14.3545C47.5115 14.3251 47.5239 14.294 47.5403 14.2644C47.3884 15.3091 47.5896 16.4301 48.1163 17.4353C46.9129 16.3098 45.5381 15.1059 43.9642 13.8313C34.3702 6.06286 27.1796 6.21091 26.9059 6.24298C26.693 6.26954 26.5426 6.45918 26.5683 6.66782C26.5945 6.87581 26.7865 7.02117 27.0001 7C27.0678 6.99266 34.1654 6.88402 43.4717 14.4192C45.4486 16.0194 47.1074 17.5112 48.5035 18.8743C47.4854 18.0354 46.2202 17.5602 44.9237 17.5602C44.6934 17.5602 44.468 17.5786 44.2469 17.6079C44.4583 17.4567 44.6602 17.29 44.8425 17.0952C44.9494 16.9816 44.9753 16.8166 44.9085 16.676C44.7464 16.3354 44.5537 16.0168 44.3369 15.7293C43.263 14.3062 41.6005 13.4563 39.8905 13.4563C39.0202 13.4563 38.1946 13.6876 37.502 14.1248C37.2198 14.3028 36.9568 14.5196 36.7219 14.7697C36.6153 14.8833 36.5887 15.0503 36.6555 15.1898C36.817 15.5276 37.0096 15.8453 37.2276 16.1367C38.3031 17.56 39.9646 18.4091 41.6743 18.4091C41.8784 18.4091 42.0799 18.395 42.2774 18.3704C42.2264 18.4063 42.174 18.441 42.1241 18.4797C41.8624 18.6825 41.6238 18.9251 41.4135 19.1965C41.3181 19.3201 41.3086 19.4877 41.3893 19.621C41.5826 19.9408 41.8061 20.2393 42.0533 20.5073C43.1411 21.6868 44.6588 22.3635 46.2146 22.3635C47.2727 22.3635 48.2422 22.0458 49.0142 21.4445C49.2759 21.2423 49.5158 21.0011 49.727 20.7263C49.822 20.6028 49.8317 20.4352 49.7501 20.3022C49.6025 20.0585 49.4347 19.8343 49.2578 19.6225C53.9369 24.3577 55.2372 27.3257 55.2535 27.3644C55.316 27.5117 55.4607 27.5994 55.6129 27.5994C55.6617 27.5994 55.7123 27.5908 55.7613 27.5707C55.9584 27.4905 56.0513 27.2684 55.9701 27.074ZM46.8209 13.9776C46.7279 14.1359 46.6214 14.2873 46.5005 14.4297C46.286 14.3318 46.0815 14.2197 45.8906 14.0962C43.8879 12.7953 43.1027 10.2815 44.138 8.49348C44.2323 8.33344 44.3374 8.18376 44.4595 8.04056C44.6752 8.13927 44.8789 8.25179 45.0694 8.37534C47.071 9.6758 47.8559 12.1897 46.8209 13.9776ZM37.8502 15.6836C37.7143 15.5022 37.5891 15.3078 37.4781 15.1033C37.6162 14.9769 37.7629 14.8655 37.9208 14.7655C38.4878 14.4083 39.1687 14.2191 39.8894 14.2191C41.3326 14.2191 42.7974 14.9715 43.7123 16.1836C43.8484 16.3629 43.972 16.5571 44.0844 16.7629C43.9454 16.8895 43.7969 17.0027 43.6417 17.1005C43.0745 17.4588 42.3933 17.6476 41.673 17.6476C40.2301 17.6476 38.7649 16.8947 37.8502 15.6836ZM49.0381 12.6683C49.1553 12.5247 49.2827 12.3927 49.4252 12.27C49.6223 12.4009 49.807 12.5426 49.9744 12.6936C51.7472 14.2832 52.1262 16.8867 50.8187 18.4964C50.7043 18.6386 50.575 18.7714 50.4331 18.8936C50.2352 18.763 50.0509 18.6215 49.8846 18.471C48.1115 16.8818 47.7315 14.2777 49.0381 12.6683ZM48.5327 20.8482C47.8967 21.3417 47.095 21.603 46.2137 21.603C44.8959 21.603 43.5552 21.0024 42.6273 19.9965C42.4733 19.8289 42.3293 19.6481 42.1989 19.4559C42.3238 19.3162 42.4586 19.1915 42.6053 19.0775C43.2407 18.5833 44.0423 18.3227 44.9236 18.3227C46.2414 18.3227 47.583 18.9231 48.512 19.9292C48.6638 20.0948 48.8078 20.276 48.9389 20.4698C48.8122 20.6097 48.6787 20.7348 48.5327 20.8482Z" fill="#85c225"/>
<path d="M37.0869 8.07407C37.3292 8.16025 37.5877 8.22353 37.8542 8.26241C37.8731 8.26478 37.892 8.26673 37.9112 8.26673C38.0464 8.26673 38.1742 8.19654 38.2448 8.08012C38.37 7.87299 38.4674 7.65161 38.5356 7.42264C38.5545 7.35828 38.5664 7.29262 38.5807 7.22761C38.6601 8.60991 39.472 10.0088 40.8246 10.8337C41.0879 10.9931 41.372 11.1292 41.6676 11.2374C41.7121 11.2536 41.7576 11.2611 41.8031 11.2611C41.9087 11.2611 42.0134 11.2181 42.0884 11.1376C42.2907 10.9225 42.4578 10.6905 42.5878 10.449C43.5731 8.62893 42.7501 6.15723 40.7534 4.93948C40.4916 4.77965 40.2073 4.64337 39.9084 4.53451C39.7623 4.48073 39.5941 4.51939 39.4868 4.63387C39.2888 4.84618 39.1208 5.07728 38.9877 5.32241C38.8131 5.64509 38.6981 5.98851 38.6334 6.34144C38.5118 5.00172 37.5127 3.7142 36.0479 3.19457C35.8099 3.10904 35.5592 3.04748 35.2843 3.00515C35.1264 2.97923 34.9711 3.05288 34.8902 3.18722C34.7615 3.40083 34.6656 3.61617 34.5981 3.84553C34.1096 5.51722 35.2254 7.414 37.0869 8.07407ZM39.6733 5.68033C39.7364 5.56478 39.8072 5.45549 39.8886 5.34966C40.0476 5.41963 40.2 5.49912 40.3432 5.58746C42.0011 6.59697 42.7007 8.61811 41.9017 10.092C41.8412 10.2048 41.7699 10.3149 41.6872 10.422C41.5289 10.3523 41.3774 10.2728 41.2326 10.1862C39.5757 9.17496 38.8761 7.15352 39.6733 5.68033ZM35.3453 4.05569C35.3701 3.97211 35.4 3.89003 35.4361 3.80947C35.5582 3.83733 35.673 3.87081 35.7845 3.91077C37.2683 4.43755 38.1679 5.91896 37.79 7.21058C37.7654 7.29481 37.7346 7.3771 37.699 7.45853C37.5789 7.43067 37.4625 7.39654 37.3508 7.35723C35.8663 6.83045 34.9665 5.34946 35.3453 4.05569Z" fill="#85c225"/>
<path d="M36.9916 10.5985C36.2854 10.2073 35.488 10 34.6852 10C33.3 10 32.0664 10.6099 31.3833 11.6311C31.23 11.8594 31.1115 12.1004 31.0204 12.3674C30.9701 12.5142 31.0147 12.6754 31.1333 12.7767C31.3659 12.9749 31.6151 13.1488 31.8751 13.2929C32.5813 13.6842 33.3788 13.8907 34.1804 13.8907H34.1813C35.5651 13.8907 36.7996 13.2814 37.4814 12.2608C37.6333 12.0351 37.7561 11.7872 37.8469 11.5226C37.897 11.3755 37.8517 11.2139 37.7321 11.1126C37.4921 10.9092 37.2498 10.7414 36.9916 10.5984L36.9916 10.5985ZM36.8339 11.8414C36.2951 12.6477 35.3039 13.1285 34.1818 13.1282C33.5121 13.1282 32.8473 12.9561 32.2572 12.6293C32.1188 12.5522 31.9836 12.465 31.8529 12.368C31.9044 12.2567 31.9635 12.1511 32.0324 12.049C32.5719 11.2429 33.5635 10.7615 34.6856 10.7615C35.3547 10.7615 36.0202 10.9349 36.6114 11.2619C36.749 11.3384 36.8821 11.4241 37.0136 11.5218C36.9619 11.6336 36.9017 11.7404 36.8339 11.8414Z" fill="#85c225"/>
<path d="M30.3269 0.629986C30.171 0.617176 30.0217 0.701106 29.9479 0.839232C29.8198 1.08287 29.7183 1.33154 29.6459 1.57691C29.0825 3.48549 29.9784 5.51589 31.6449 6.10287C31.8755 6.18326 32.1086 6.232 32.3566 6.25261C32.4631 6.26115 32.5669 6.22538 32.6448 6.15774C32.6811 6.12617 32.7112 6.08772 32.7345 6.04376C32.8607 5.80633 32.9619 5.55796 33.0366 5.30608C33.6018 3.39852 32.7055 1.3681 31.0413 0.781455C30.8172 0.70224 30.5761 0.651609 30.3269 0.629986ZM32.2987 5.10099C32.264 5.21836 32.2218 5.33512 32.1726 5.44959C32.0835 5.43145 31.9969 5.40715 31.9117 5.37753C30.6181 4.92158 29.9338 3.30832 30.3841 1.78035C30.418 1.66509 30.4603 1.54974 30.5108 1.4338C30.5998 1.45177 30.6878 1.47662 30.7717 1.50617C32.0659 1.96279 32.7499 3.57537 32.2987 5.10099Z" fill="#85c225"/>
<path d="M19.9274 4.47271C19.8289 4.57384 19.8015 4.72602 19.8553 4.8567C19.9513 5.08579 20.066 5.29933 20.1952 5.49069C21.1999 6.97921 23.1277 7.52206 24.4936 6.69934C24.682 6.58503 24.8499 6.45079 25.0067 6.29002C25.0738 6.22084 25.1085 6.12805 25.1062 6.03499C25.1051 5.99154 25.0956 5.9485 25.0784 5.90704C24.9856 5.68282 24.8709 5.46968 24.7385 5.27304C23.7355 3.78387 21.8075 3.24123 20.4432 4.06254C20.2593 4.17295 20.0856 4.31171 19.9274 4.47271ZM24.1719 5.66878C24.2336 5.76035 24.2906 5.8568 24.3421 5.95677C24.2783 6.0084 24.2116 6.05474 24.142 6.09698C23.0816 6.7354 21.5657 6.2849 20.7609 5.09376C20.7001 5.00395 20.6441 4.90826 20.5924 4.80651C20.6561 4.75489 20.7239 4.70792 20.7927 4.6665C21.854 4.02807 23.3693 4.47835 24.1719 5.66878Z" fill="#85c225"/>
<path d="M24.9178 0.724741C24.7624 0.742615 24.6323 0.854094 24.587 1.00396C24.5089 1.26792 24.4579 1.53163 24.4348 1.78642C24.2549 3.76827 25.53 5.58466 27.2791 5.83494C27.5209 5.86876 27.7591 5.87105 28.0063 5.84284C28.1124 5.83043 28.2072 5.77507 28.2704 5.69354C28.2999 5.65546 28.3219 5.61188 28.3362 5.56422C28.4136 5.30672 28.4644 5.04336 28.4884 4.78176C28.6702 2.80057 27.3948 0.984212 25.648 0.733815C25.4128 0.699867 25.1664 0.697297 24.9178 0.724741ZM27.7247 4.72469C27.7135 4.84658 27.6949 4.96933 27.6691 5.09119C27.5781 5.09082 27.4884 5.08389 27.3991 5.07147C26.0414 4.87688 25.0553 3.42828 25.1985 1.8418C25.2093 1.72214 25.2282 1.60075 25.2551 1.47719C25.3459 1.47743 25.437 1.48463 25.5251 1.49722C26.8835 1.69235 27.8693 3.14034 27.7247 4.72469Z" fill="#85c225"/>
<path d="M32.2303 9.29575C32.2407 9.13968 32.1545 8.99164 32.0152 8.92004C31.7696 8.79577 31.5194 8.69808 31.2729 8.62949C29.3558 8.09582 27.3396 9.02317 26.7786 10.6987C26.7018 10.9305 26.6567 11.1643 26.6399 11.4126C26.633 11.5192 26.6704 11.6224 26.7393 11.6992C26.7714 11.7351 26.8103 11.7646 26.8546 11.7872C27.094 11.9097 27.3439 12.007 27.5969 12.0778C29.513 12.6132 31.5293 11.6856 32.09 10.0124C32.1657 9.78713 32.2126 9.54522 32.2303 9.29575ZM27.7905 11.3368C27.6726 11.3039 27.5552 11.2635 27.44 11.2162C27.4567 11.1267 27.4797 11.0397 27.508 10.9541C27.9438 9.6536 29.5462 8.94432 31.081 9.37079C31.1968 9.4029 31.3128 9.44337 31.4295 9.49206C31.4129 9.58134 31.3894 9.6697 31.3612 9.75406C30.9247 11.0552 29.323 11.7642 27.7905 11.3368Z" fill="#85c225"/>
<path d="M27.2292 8.29764C27.2396 8.14157 27.1534 7.99353 27.0141 7.92193C26.7685 7.79767 26.5183 7.69997 26.2718 7.63138C24.3547 7.09771 22.3385 8.02506 21.7775 9.70056C21.7007 9.93237 21.6556 10.1662 21.6388 10.4145C21.6319 10.5211 21.6693 10.6243 21.7382 10.7011C21.7703 10.737 21.8092 10.7665 21.8535 10.7891C22.0929 10.9116 22.3428 11.0089 22.5958 11.0796C24.5119 11.6151 26.5282 10.6874 27.0889 9.01426C27.1646 8.78903 27.2115 8.54712 27.2292 8.29764ZM22.7894 10.3387C22.6715 10.3058 22.5541 10.2654 22.4389 10.2181C22.4556 10.1286 22.4786 10.0416 22.5069 9.95603C22.9427 8.65549 24.5451 7.94622 26.0799 8.37268C26.1957 8.4048 26.3117 8.44526 26.4284 8.49396C26.4118 8.58323 26.3883 8.6716 26.3601 8.75595C25.9236 10.0571 24.3219 10.7661 22.7894 10.3387Z" fill="#85c225"/>
<path fill-rule="evenodd" clip-rule="evenodd" d="M34.6487 40.3967C33.9229 40.4115 30.6579 40.5603 28.36 42.0894C28.0882 42.2677 27.8459 42.4603 27.6342 42.6534C27.1657 43.0839 26.8783 43.6627 26.8025 44.3011L25.7748 54.8269C25.7296 55.3018 25.8656 55.7624 26.168 56.1185C26.4855 56.5047 26.9239 56.7421 27.4225 56.7865C27.9668 56.8308 28.5717 56.8461 29.2368 56.8013C31.5347 56.6678 34.4374 56.0441 37.8839 54.9308C38.3524 54.7826 38.6699 54.3521 38.6699 53.8619C38.6699 53.2383 38.1558 52.7334 37.5207 52.7334C37.4149 52.7334 37.3091 52.7481 37.2183 52.7777C35.0413 53.3565 32.0634 54.0397 30.3248 54.0097C29.8412 53.9949 29.3873 53.787 29.0703 53.4156C28.7678 53.0447 28.6319 52.5693 28.7227 52.0944L29.9621 45.2355C30.0228 44.9089 30.3398 44.6863 30.6724 44.7454C31.0049 44.805 31.2317 45.1163 31.1715 45.4429L29.932 52.3018C29.9019 52.4654 29.9772 52.5841 30.0228 52.6432C30.068 52.7028 30.1738 52.7914 30.3554 52.8067C31.5948 52.8363 33.9233 52.4058 36.9013 51.6191C37.113 51.5595 37.3247 51.5299 37.5363 51.5299C38.8515 51.5299 39.9099 52.5841 39.9099 53.8609C39.9099 54.8702 39.2598 55.7613 38.2772 56.0731C34.9967 57.1273 32.1847 57.7658 29.8718 57.9588L29.8267 58.9834L45.2163 58.9839L44.5812 45.4594C44.5662 45.2219 44.7021 44.9845 44.9288 44.8806L50.3256 42.4013C53.6061 40.9018 55.7224 37.6207 55.7224 34.0725V28.8466C55.7224 28.1639 55.1481 27.5993 54.4523 27.5993H54.3766C53.6814 27.5993 53.1221 28.1486 53.1065 28.8313L53.0915 30.1825C53.0614 32.7952 52.0331 35.2744 50.2193 37.1748C48.405 39.0901 45.9411 40.2328 43.2956 40.4111C42.1465 40.4855 41.2696 40.3668 40.6352 40.0402C39.6676 40.6934 38.5189 41.0495 37.3547 41.0495C36.4027 41.05 35.4808 40.8274 34.6491 40.3969L34.6487 40.3967Z" fill="#85c225"/>
<path fill-rule="evenodd" clip-rule="evenodd" d="M21.1192 40.4711C20.3332 40.8572 19.4563 41.0651 18.5494 41.0651C17.6119 41.0651 16.705 40.8425 15.889 40.4267C16.0099 41.5848 16.2065 42.8616 16.4784 44.2271C17.0983 43.8562 18.0202 43.2769 18.9272 42.5646C19.8943 41.8218 20.6201 41.1243 21.1192 40.4711Z" fill="#85c225"/>
<path fill-rule="evenodd" clip-rule="evenodd" d="M25.6691 40.4865C25.2006 43.0101 23.3261 45.4897 20.1058 47.865C19.9999 47.9394 19.864 47.9837 19.7431 47.9837C19.6373 47.9837 19.5164 47.9542 19.4256 47.8946L16.9767 46.4246C17.7627 49.7058 18.6396 52.289 18.6546 52.3186C18.7454 52.5708 18.6546 52.8531 18.4279 53.0013L15.7067 54.8717C15.6009 54.9461 15.48 54.9757 15.3591 54.9757C15.1775 54.9757 14.9814 54.8865 14.86 54.7383C14.8148 54.6786 13.8166 53.3428 12.9554 50.8339C12.4563 49.3639 12.0936 47.8054 11.897 46.1872C11.6703 44.3168 11.6552 42.3715 11.8518 40.3824L10.0983 39.8627C7.99708 39.2243 6.18279 37.9923 4.85249 36.285C3.50718 34.5776 2.75131 32.5436 2.64546 30.391L2.53962 28.7876C2.50953 28.1196 1.95024 27.5999 1.26955 27.5999C0.936987 27.5999 0.604426 27.7334 0.377706 27.9708C0.135938 28.2083 0 28.5201 0 28.8467V33.8052C0 36.7298 1.43602 39.506 3.83976 41.2281L9.02482 44.9546C9.16075 45.0585 9.25154 45.2068 9.26659 45.3851L10.5517 58.9997H24.8535L25.0652 56.6835C24.6719 56.1047 24.4909 55.4214 24.5661 54.724L25.5939 44.1982C25.6847 43.2627 26.108 42.4165 26.8032 41.778C26.9241 41.6741 27.045 41.5701 27.1659 41.4662C26.6222 40.8578 26.0629 40.6056 25.6696 40.4869L25.6691 40.4865Z" fill="#85c225"/>
<path fill-rule="evenodd" clip-rule="evenodd" d="M19.6827 43.514C18.7758 44.2115 17.8839 44.7908 17.2489 45.1765L19.6978 46.6465C22.7064 44.3751 24.3236 42.0442 24.5353 39.7432C24.6411 38.6595 24.3843 37.7388 24.0818 37.056C23.8701 37.724 23.5376 38.3328 23.0992 38.8968C23.0084 40.2776 21.8592 41.8361 19.6827 43.5139L19.6827 43.514Z" fill="#85c225"/>
<path fill-rule="evenodd" clip-rule="evenodd" d="M13.4091 37.9772C13.2882 38.66 13.1824 39.3284 13.1067 39.9963C12.5624 44.643 13.3334 48.2059 14.0743 50.3738C14.5884 51.8733 15.1627 52.9422 15.5103 53.521L17.3396 52.259C17.007 51.2196 16.1302 48.4286 15.45 45.2814C14.9815 43.114 14.6941 41.184 14.5882 39.5062C14.1047 39.0614 13.7114 38.5417 13.4089 37.9771L13.4091 37.9772Z" fill="#85c225"/>
<path fill-rule="evenodd" clip-rule="evenodd" d="M23.1298 35.3647C23.1298 37.8408 21.0856 39.8483 18.5642 39.8483C16.0427 39.8483 13.9991 37.8408 13.9991 35.3647C13.9991 32.8885 16.0427 30.881 18.5642 30.881C21.0856 30.881 23.1298 32.8885 23.1298 35.3647Z" fill="#85c225"/>
<path fill-rule="evenodd" clip-rule="evenodd" d="M41.9209 35.3647C41.9209 37.8408 39.8767 39.8483 37.3553 39.8483C34.8339 39.8483 32.7897 37.8408 32.7897 35.3647C32.7897 32.8885 34.8339 30.881 37.3553 30.881C39.8767 30.881 41.9209 32.8885 41.9209 35.3647Z" fill="#85c225"/>
</svg>
