<svg width="110" height="110" viewBox="0 0 69 69" fill="none" xmlns="http://www.w3.org/2000/svg">
<path d="M7.76409 45.2062H15.2495C15.6315 49.6287 19.5268 53.1087 24.2625 53.1087C29.3039 53.1087 33.3522 49.2661 33.3522 44.4809V24.4706C33.3522 20.5558 36.7132 17.2928 40.9143 17.2928H49.0876L49.0114 20.9179C49.0114 21.3528 49.3167 21.6431 49.7754 21.6431C50.1574 21.6431 50.5395 21.3533 50.5395 20.9179L50.6157 16.5676C50.6157 16.3501 50.5395 16.205 50.3866 16.0598C50.2336 15.9147 50.0813 15.8423 49.8516 15.8423L40.9144 15.8428C35.8729 15.8428 31.8246 19.6854 31.8246 24.4706V44.5534C31.8246 48.4683 28.4636 51.7312 24.2625 51.7312C20.3671 51.7312 17.0824 48.9036 16.7771 45.2786H24.9504C25.4086 45.2786 25.7145 44.9888 25.7145 44.5534L25.7139 12.7252C25.7139 12.2903 25.4086 12 24.9499 12L15.3257 12.0005C14.8675 12.0005 14.5617 12.2903 14.5617 12.7257V17.0032C10.0552 17.1478 7 19.6856 7 23.3829V44.4807C7 44.8433 7.30534 45.2062 7.76409 45.2062ZM15.9368 37.7386C15.0204 37.7386 14.2564 37.0133 14.2564 36.1435C14.2564 35.2737 15.0204 34.5485 15.9368 34.5485C16.8532 34.5485 17.6173 35.2737 17.6173 36.1435C17.6173 37.0133 16.8532 37.7386 15.9368 37.7386ZM16.0897 13.5232H24.1862V17.0758H16.0897V13.5232ZM8.52767 23.3833C8.52767 19.7583 11.8119 18.5257 14.8675 18.5257H24.1862V43.8287H16.7771V39.1886C18.1517 38.826 19.2216 37.6658 19.2216 36.2888C19.2216 34.6214 17.7702 33.2437 16.0135 33.2437C14.2568 33.2437 12.8054 34.6214 12.8054 36.2888C12.8054 37.6664 13.8747 38.8988 15.2499 39.1886V43.8287H8.52753L8.52767 23.3833Z" fill="#85c225"/>
<path d="M43.6154 30.8914C43.6154 31.2967 43.2693 31.6252 42.8427 31.6252C42.4158 31.6252 42.0697 31.2967 42.0697 30.8914C42.0697 30.4865 42.4158 30.158 42.8427 30.158C43.2693 30.158 43.6154 30.4865 43.6154 30.8914Z" fill="#85c225"/>
<path d="M47.7792 31.8185C47.7792 32.2238 47.4331 32.5523 47.0061 32.5523C46.5792 32.5523 46.2335 32.2238 46.2335 31.8185C46.2335 31.4136 46.5792 31.0851 47.0061 31.0851C47.4331 31.0851 47.7792 31.4136 47.7792 31.8185Z" fill="#85c225"/>
<path d="M53.4966 31.8185C53.4966 32.2238 53.1506 32.5523 52.7236 32.5523C52.297 32.5523 51.951 32.2238 51.951 31.8185C51.951 31.4136 52.297 31.0851 52.7236 31.0851C53.1506 31.0851 53.4966 31.4136 53.4966 31.8185Z" fill="#85c225"/>
<path d="M46.2335 28.734C46.2335 29.1393 45.8874 29.4678 45.4608 29.4678C45.0339 29.4678 44.6878 29.1393 44.6878 28.734C44.6878 28.3291 45.0339 28.0006 45.4608 28.0006C45.8874 28.0006 46.2335 28.3291 46.2335 28.734Z" fill="#85c225"/>
<path d="M50.2516 29.4243C50.2516 29.8296 49.9059 30.158 49.479 30.158C49.052 30.158 48.7063 29.8296 48.7063 29.4243C48.7063 29.0194 49.052 28.6909 49.479 28.6909C49.9059 28.6909 50.2516 29.0194 50.2516 29.4243Z" fill="#85c225"/>
<path d="M54.2693 28.734C54.2693 29.1393 53.9232 29.4678 53.4963 29.4678C53.0697 29.4678 52.7236 29.1393 52.7236 28.734C52.7236 28.3291 53.0697 28.0006 53.4963 28.0006C53.9232 28.0006 54.2693 28.3291 54.2693 28.734Z" fill="#85c225"/>
<path d="M50.2518 24.2101C50.2518 24.6154 49.906 24.9437 49.479 24.9437C49.0519 24.9437 48.7061 24.6154 48.7061 24.2101C48.7061 23.8048 49.0519 23.4765 49.479 23.4765C49.906 23.4765 50.2518 23.8048 50.2518 24.2101Z" fill="#85c225"/>
<path d="M48.0058 26.3057C48.0058 26.711 47.6597 27.0392 47.233 27.0392C46.806 27.0392 46.4598 26.711 46.4598 26.3057C46.4598 25.9003 46.806 25.5721 47.233 25.5721C47.6597 25.5721 48.0058 25.9003 48.0058 26.3057Z" fill="#85c225"/>
<path d="M52.2682 26.3057C52.2682 26.711 51.9224 27.0392 51.4954 27.0392C51.0683 27.0392 50.7225 26.711 50.7225 26.3057C50.7225 25.9003 51.0683 25.5721 51.4954 25.5721C51.9224 25.5721 52.2682 25.9003 52.2682 26.3057Z" fill="#85c225"/>
<path d="M57.3658 30.6073C57.3658 31.0126 57.0201 31.3411 56.5932 31.3411C56.1662 31.3411 55.8205 31.0126 55.8205 30.6073C55.8205 30.2024 56.1662 29.8739 56.5932 29.8739C57.0201 29.8739 57.3658 30.2024 57.3658 30.6073Z" fill="#85c225"/>
<path d="M7.47089 60.3328C7.47089 59.9643 7.78559 59.6656 8.17379 59.6656H59.4855C59.8737 59.6656 60.1884 59.9643 60.1884 60.3328C60.1884 60.7013 59.8737 61 59.4855 61H8.17379C7.78559 61 7.47089 60.7013 7.47089 60.3328Z" fill="#85c225"/>
<path d="M18.9149 35.9302C18.9149 37.1889 17.5813 38.2093 15.9362 38.2093C14.2911 38.2093 12.9574 37.1889 12.9574 35.9302C12.9574 34.6715 14.2911 33.6512 15.9362 33.6512C17.5813 33.6512 18.9149 34.6715 18.9149 35.9302Z" fill="#85c225"/>
<path d="M15.3404 13.1395H24.8723V17.6977H15.3404V13.1395Z" fill="#85c225"/>
<path d="M40.7706 42.144C42.4687 41.3132 43.1797 39.3394 42.4457 37.6523C42.5891 37.1638 42.6504 36.6277 42.5554 36.1101C42.5519 36.253 42.3431 37.0483 42.0634 37.6408C40.5328 38.589 39.9428 40.5244 40.7706 42.144Z" fill="#85c225"/>
<path d="M46.1272 54.6394C47.4953 53.5333 47.7643 51.6045 46.7881 50.1756C46.8457 49.6286 46.7832 49.0285 46.5476 48.4989C46.5835 48.6632 46.5939 49.5765 46.4213 50.1761C45.7716 50.7775 45.4067 51.5717 45.3517 52.3983C45.2405 52.1005 45.1195 51.8065 45.005 51.5101C46.3302 50.3327 46.496 48.3731 45.4303 46.9909C45.48 46.2752 45.3689 45.853 45.1894 45.4497C45.3035 45.974 45.2592 46.4849 45.1161 46.9702C44.4611 47.6194 44.1267 48.4661 44.1252 49.326C43.9855 48.9905 43.8301 48.6614 43.687 48.3274C45.0419 47.1852 45.2685 45.227 44.2304 43.8135C44.3086 43.358 44.313 42.8737 44.1862 42.4148C44.2191 42.917 44.0976 43.4264 43.9088 43.8602C43.1751 44.5547 42.8132 45.4978 42.8609 46.443C42.7079 46.1018 42.5658 45.7558 42.4104 45.4155L42.4143 45.4208C43.8237 44.267 44.0411 42.2477 42.9563 40.8225C43.0374 40.3656 43.0448 39.8755 42.915 39.407C42.9504 39.9463 42.8166 40.4678 42.6199 40.8996C41.8183 41.6948 41.4937 42.7917 41.6806 43.8405C40.9872 42.3705 40.285 40.9049 39.5415 39.4596C39.8045 40.0056 40.0406 40.5627 40.2958 41.1122C39.5095 39.9594 38.0632 39.3753 36.639 39.7136C36.281 39.5579 36.1236 39.5218 35.7179 39.1271C35.923 39.4288 36.19 39.6813 36.4787 39.8934C37.0959 41.5691 38.938 42.4949 40.6922 41.9802C40.9514 42.5474 41.2169 43.1118 41.4692 43.6819C40.8073 42.9142 39.8076 42.464 38.7261 42.4992C38.2624 42.3306 37.7829 42.0472 37.4171 41.6394C37.6704 42.0727 38.0549 42.4318 38.468 42.7069C38.7941 44.4405 40.4282 45.6531 42.2365 45.4468C42.4539 45.9562 42.6525 46.4719 42.863 46.9837C42.1298 46.0425 40.9235 45.5292 39.6705 45.6964C39.3995 45.5634 38.8748 45.4617 38.2896 44.8091C38.5237 45.2096 38.8084 45.5484 39.459 45.9441C39.9552 47.6049 41.6538 48.6367 43.402 48.3047C43.7088 49.0739 43.8082 49.2459 44.1435 50.1395C43.4615 49.1857 42.3058 48.6228 41.0631 48.7186C40.6087 48.4887 40.1371 48.1205 39.814 47.6323C40.0141 48.1311 40.3033 48.5369 40.8531 48.9774C41.2593 50.6521 42.8885 51.7703 44.6476 51.537C44.8084 51.9862 44.9727 52.4339 45.1246 52.8855C44.4868 52.1722 43.553 51.7433 42.5325 51.7457C42.0235 51.499 41.5623 51.1587 41.2308 50.6584C41.4393 51.179 41.8189 51.6382 42.2433 51.9843C42.5354 53.6296 44.0097 54.8109 45.7132 54.7651C46.4464 57.2177 46.8039 58.6014 46.8088 60.9643L47.4103 61C47.3394 58.5117 46.97 57.2096 46.1272 54.6394Z" fill="#85c225"/>
<path d="M63 35.3561C62.6872 35.6534 62.3149 35.8805 61.9343 36.0512C60.2128 35.6347 58.4572 36.3213 57.5065 37.6832C57.8128 37.039 58.0961 36.3851 58.4118 35.7454C57.5189 37.4402 56.6763 39.1587 55.8442 40.8822C56.0684 39.6526 55.679 38.3657 54.7171 37.4334C54.4763 36.9163 54.3217 36.2997 54.363 35.6832C54.1783 36.3359 54.2084 36.7653 54.3158 37.3395C53.0111 39.0111 53.2707 41.3812 54.9632 42.7346C54.9649 42.7323 54.9667 42.7301 54.9685 42.7278C54.7814 43.1268 54.6109 43.5325 54.4279 43.9326C54.4852 42.8222 54.0491 41.714 53.1651 40.8991C52.85 40.191 52.8051 39.6976 52.8376 39.2093C52.6835 39.7535 52.6906 40.3215 52.7839 40.8493C51.5387 42.5068 51.8102 44.8022 53.4359 46.1415C53.2642 46.5332 53.0783 46.9186 52.9107 47.3125C52.909 46.3037 52.5065 45.3108 51.7205 44.549C51.5611 44.0014 51.5009 43.3651 51.6337 42.7679C51.3682 43.351 51.2979 43.9908 51.3398 44.5813C50.0664 46.202 50.267 48.4947 51.855 49.8735C51.7175 50.2211 51.5723 50.5658 51.439 50.915C51.3741 49.9605 50.9486 49.0433 50.1903 48.3415C49.9997 47.6074 49.9649 46.5151 50.0032 46.3428C49.7082 46.991 49.645 47.5747 49.7206 48.2997C48.5415 49.9764 48.8631 52.2442 50.5078 53.5434C49.7064 55.9321 48.9628 58.344 48.9693 61L49.691 60.9582C49.6969 58.0846 50.1029 56.6379 51.0058 53.6892C53.0499 53.7434 54.8191 52.3583 55.1695 50.4285C55.6782 50.0222 56.1338 49.4836 56.3846 48.8739C55.9898 49.4571 55.4387 49.8572 54.8225 50.1488C53.5986 50.1465 52.4779 50.6489 51.7126 51.4853C51.895 50.9558 52.0921 50.4308 52.285 49.904C54.4053 50.1792 56.3692 48.8552 56.8455 46.8767C57.5873 46.2929 57.8747 45.838 58.0854 45.3254C57.7012 45.8928 57.14 46.3268 56.5882 46.5992C55.0964 46.4856 53.7085 47.1462 52.89 48.2646C52.9107 48.2104 52.9296 48.155 52.9502 48.1007C53.2099 47.4322 53.5085 46.7773 53.7799 46.1133C55.873 46.5021 57.906 45.2978 58.5068 43.3584C59.104 43.0046 59.5353 42.6486 59.9148 42.0145C59.4403 42.5316 58.8431 42.8458 58.2022 43.0487C56.7181 42.8746 55.2948 43.4742 54.4261 44.5644C54.6793 43.9648 54.9177 43.359 55.1779 42.7622C57.3495 43.0047 59.3117 41.5806 59.7011 39.5451C60.2257 39.2094 60.5934 38.9139 60.961 38.2985C60.5225 38.7766 59.9448 39.1088 59.3896 39.3083C58.0925 39.2671 56.8934 39.7949 56.0991 40.6951C56.4013 40.0266 56.7205 39.3648 57.0315 38.6991C59.153 39.3072 61.3847 38.2018 62.1078 36.2075C62.4276 35.9798 62.597 35.9359 63 35.3561Z" fill="#85c225"/>
<path d="M57.0367 38.527C58.2636 36.7806 57.629 34.5569 55.6665 33.3605C55.3404 32.6714 55.1238 31.7606 55.1308 31.6C54.9634 32.1755 55.0039 32.7819 55.1569 33.3415C54.0497 35.1712 54.8424 37.448 57.0367 38.527Z" fill="#85c225"/>
</svg>
