<svg width="110" height="110" viewBox="0 0 69 69" fill="none" xmlns="http://www.w3.org/2000/svg">
<rect x="48.2244" y="23.1124" width="6.82734" height="17.0499" transform="rotate(-15.0195 48.2244 23.1124)" fill="#85c225"/>
<rect x="13.9871" y="21.0547" width="7.18677" height="17.3851" transform="rotate(15.3623 13.9871 21.0547)" fill="#85c225"/>
<path fill-rule="evenodd" clip-rule="evenodd" d="M33.0882 47.9996C32.4925 47.9996 31.8487 47.8013 31.2625 47.4191L16.8408 38.0107C16.6345 37.8762 16.5767 37.6005 16.7112 37.3941C16.8456 37.1878 17.1218 37.13 17.3277 37.2645L31.7494 46.6729C32.419 47.1092 33.1576 47.2313 33.677 46.99C34.0861 46.8001 34.3314 46.3987 34.4064 45.797C34.4365 45.5526 34.6589 45.3796 34.9034 45.4101C35.1478 45.4402 35.3208 45.663 35.2907 45.9074C35.1787 46.8082 34.7388 47.4802 34.0523 47.7985C33.7609 47.9337 33.4326 48 33.0881 48L33.0882 47.9996Z" fill="#85c225" stroke="#85c225" stroke-width="0.96"/>
<path fill-rule="evenodd" clip-rule="evenodd" d="M44.4309 41.3757C43.8874 41.3757 43.2765 41.2637 42.6166 41.0385C42.56 41.0189 42.5078 40.9887 42.4632 40.9486L36.8783 35.9453C36.6948 35.7811 36.6796 35.4993 36.8438 35.3163C37.0079 35.1328 37.2897 35.1176 37.4732 35.2818L42.9895 40.2236C44.1556 40.605 45.1081 40.5668 45.6116 40.1156C45.9303 39.8298 45.9933 39.4388 45.9905 39.1607C45.9817 38.3145 45.3815 37.2993 44.3856 36.4442L33.2318 27.076C32.8569 26.7613 32.4149 26.6629 31.9184 26.785C31.0329 27.0021 30.0575 27.9122 29.6464 28.9028C28.742 31.3502 26.9561 32.5814 25.5865 32.7158C24.8599 32.7873 24.2731 32.5496 23.9764 32.0639C23.7761 31.7355 23.5533 31.0085 24.3144 29.8248C24.6078 29.3841 24.8041 28.3701 24.7989 27.7314C24.7901 26.6147 25.1851 25.6678 25.8322 24.8777L20.3175 26.4634C20.0807 26.5316 19.8342 26.3947 19.766 26.1583C19.6982 25.9214 19.8346 25.675 20.0711 25.6067L27.4403 23.4877C29.227 22.3509 31.5785 21.7769 33.3687 21.6716C33.3844 21.6704 33.4005 21.6708 33.4157 21.6712C35.5236 21.77 38.0669 22.0217 40.9555 23.1364L48.7204 25.6103C48.9549 25.685 49.0845 25.9359 49.0098 26.1703C48.9352 26.4047 48.6843 26.5344 48.4499 26.4597L40.672 23.9814C40.6636 23.9786 40.6547 23.9758 40.6467 23.9726C37.8829 22.904 35.4323 22.6596 33.3979 22.5628C30.8546 22.7193 25.6615 24.1792 25.6899 27.7242C25.6952 28.3986 25.5033 29.6478 25.0597 30.3133C24.7053 30.8649 24.5828 31.3481 24.7366 31.5995C24.8466 31.7793 25.1316 31.8656 25.4997 31.8295C26.5586 31.7255 28.0475 30.6666 28.8134 28.5873C28.8154 28.582 28.8174 28.5768 28.8194 28.5716C29.2617 27.4974 30.3953 26.2418 31.706 25.9198C32.4827 25.7291 33.2085 25.8929 33.805 26.3939L44.9629 35.7649C46.172 36.803 46.8701 38.0361 46.8821 39.1512C46.889 39.8047 46.6493 40.3827 46.2066 40.7794C45.7642 41.176 45.1577 41.3759 44.4315 41.3755L44.4309 41.3757Z" fill="#85c225" stroke="#85c225" stroke-width="0.96"/>
<path fill-rule="evenodd" clip-rule="evenodd" d="M40.5547 44.4617C39.6849 44.4617 38.9362 44.1964 38.884 44.1771C38.8294 44.157 38.7793 44.1269 38.7363 44.088L33.6167 39.434C33.4344 39.2686 33.4212 38.9868 33.5866 38.8045C33.7524 38.6223 34.0337 38.6091 34.216 38.7744L39.2654 43.3646C39.6086 43.4714 41.0056 43.8507 41.7907 43.2109C42.319 42.7802 42.4964 41.9287 42.3182 40.68C42.2832 40.4363 42.4526 40.2107 42.6963 40.1758C42.94 40.1405 43.1656 40.3103 43.2005 40.5539C43.4265 42.1355 43.1407 43.2626 42.3511 43.9042C41.8228 44.3333 41.1592 44.4621 40.5544 44.4617L40.5547 44.4617Z" fill="#85c225" stroke="#85c225" stroke-width="0.96"/>
<path fill-rule="evenodd" clip-rule="evenodd" d="M36.6695 46.7131C35.6322 46.7131 34.7102 46.2808 34.6548 46.2547C34.6191 46.2374 34.5862 46.2162 34.5561 46.1901L30.3673 42.5829C30.1806 42.4223 30.1597 42.1409 30.3203 41.9547C30.4809 41.768 30.7623 41.7471 30.9489 41.9077L35.0879 45.4719C35.3604 45.5891 36.704 46.1186 37.6281 45.6008C38.166 45.2989 38.4907 44.6631 38.5923 43.7105C38.6184 43.4656 38.8387 43.289 39.0828 43.3147C39.3277 43.3408 39.5047 43.5603 39.4786 43.8052C39.3441 45.0632 38.8668 45.9299 38.0604 46.3803C37.6184 46.6268 37.1323 46.7135 36.6695 46.7131L36.6695 46.7131Z" fill="#85c225" stroke="#85c225" stroke-width="0.96"/>
<path fill-rule="evenodd" clip-rule="evenodd" d="M15.0604 21.5816C14.4053 21.5816 13.8043 22.0192 13.6269 22.6815L9.92389 36.501C9.71235 37.291 10.1828 38.1062 10.9728 38.3182L14.6486 39.3029C15.439 39.5144 16.2539 39.0444 16.4654 38.254L20.1681 24.4345C20.27 24.054 20.2166 23.6546 20.018 23.3102C19.8192 22.9658 19.4997 22.7197 19.1192 22.6177L15.4434 21.6327C15.3153 21.5985 15.1872 21.5816 15.0604 21.5816ZM15.0323 40.2443C14.8296 40.2443 14.6232 40.2182 14.4181 40.1632L10.7423 39.1781C9.47739 38.8393 8.72434 37.5348 9.06315 36.2699L12.7658 22.4504C13.1046 21.1855 14.4092 20.4324 15.6741 20.7716L19.3499 21.7563C19.9604 21.9201 20.4718 22.3135 20.7898 22.8642C21.1077 23.4145 21.1924 24.0544 21.029 24.6649L17.3264 38.4844C17.0426 39.5441 16.0808 40.2447 15.0323 40.2443Z" fill="#85c225" stroke="#85c225" stroke-width="0.96"/>
<path fill-rule="evenodd" clip-rule="evenodd" d="M53.3203 21.6319L49.6445 22.6166C49.2639 22.7186 48.9444 22.9646 48.7457 23.309C48.547 23.6535 48.4936 24.0529 48.5956 24.4334L52.3007 38.2611C52.5122 39.0511 53.3271 39.522 54.1175 39.31L57.7936 38.3249C58.1742 38.2229 58.4933 37.9773 58.6924 37.6329C58.8915 37.288 58.9445 36.889 58.8425 36.5081L56.99 29.5943L55.1374 22.6804C55.0355 22.2999 54.7894 21.9807 54.445 21.782C54.1006 21.5829 53.7012 21.53 53.3203 21.6319ZM53.7342 40.2525C52.6857 40.2529 51.7239 39.552 51.4397 38.4923L47.7346 24.6645C47.5708 24.054 47.6559 23.4145 47.9738 22.8638C48.2917 22.3131 48.8031 21.9197 49.4137 21.7564L53.0895 20.7713C53.7001 20.6075 54.3395 20.6926 54.8902 21.0105C55.4409 21.3285 55.8344 21.8399 55.9977 22.4504L59.7032 36.2782C59.867 36.8887 59.7819 37.5286 59.464 38.0793C59.1461 38.6296 58.6347 39.023 58.0241 39.1867L54.3483 40.1714C54.1435 40.2264 53.9373 40.2529 53.7342 40.2525Z" fill="#85c225" stroke="#85c225" stroke-width="0.96"/>
<path fill-rule="evenodd" clip-rule="evenodd" d="M53.3203 21.6319L49.6445 22.6166C49.2639 22.7186 48.9444 22.9646 48.7457 23.309C48.547 23.6535 48.4936 24.0529 48.5956 24.4334L52.3007 38.2611C52.5122 39.0511 53.3271 39.522 54.1175 39.31L57.7936 38.3249C58.1742 38.2229 58.4933 37.9773 58.6924 37.6329C58.8915 37.288 58.9445 36.889 58.8425 36.5081L56.99 29.5943L55.1374 22.6804C55.0355 22.2999 54.7894 21.9807 54.445 21.782C54.1006 21.5829 53.7012 21.53 53.3203 21.6319ZM53.7342 40.2525C52.6857 40.2529 51.7239 39.552 51.4397 38.4923L47.7346 24.6645C47.5708 24.054 47.6559 23.4145 47.9738 22.8638C48.2917 22.3131 48.8031 21.9197 49.4137 21.7564L53.0895 20.7713C53.7001 20.6075 54.3395 20.6926 54.8902 21.0105C55.4409 21.3285 55.8344 21.8399 55.9977 22.4504L59.7032 36.2782C59.867 36.8887 59.7819 37.5286 59.464 38.0793C59.1461 38.6296 58.6347 39.023 58.0241 39.1867L54.3483 40.1714C54.1435 40.2264 53.9373 40.2529 53.7342 40.2525Z" fill="#85c225" stroke="#85c225" stroke-width="0.96"/>
<path fill-rule="evenodd" clip-rule="evenodd" d="M46.2975 40.9051C46.161 40.9051 46.0229 40.9015 45.8828 40.8935C45.6371 40.8798 45.4489 40.6695 45.4629 40.4234C45.4766 40.1777 45.6877 39.9899 45.9326 40.0035C49.194 40.187 51.4565 37.7817 51.479 37.7577C51.646 37.577 51.9277 37.5658 52.1084 37.732C52.2894 37.8986 52.3011 38.1799 52.1349 38.3606C52.0361 38.4682 49.7569 40.9048 46.297 40.9044L46.2975 40.9051Z" fill="#85c225" stroke="#85c225" stroke-width="0.96"/>
</svg>
