<svg width="110" height="110" viewBox="0 0 69 69" fill="none" xmlns="http://www.w3.org/2000/svg">
<path fill-rule="evenodd" clip-rule="evenodd" d="M40.2319 16C42.3757 17.2562 44.2458 18.3782 46.154 19.4964C45.8783 19.9899 45.5991 20.4834 45.3248 20.9776C46.9494 21.9309 48.5707 22.8804 50.1956 23.833C49.5634 24.9687 49.0466 25.8551 48.4632 26.9021C46.8366 25.9465 45.2163 24.9915 43.5924 24.0318C43.3234 24.5144 43.0617 24.9997 42.793 25.4823C42.3079 25.2011 41.8227 24.9009 41.3423 24.6118L39.4767 27.9402L40.0392 28.2763C40.7927 28.7214 41.298 29.4142 41.5495 30.1238C41.7997 30.8304 41.8297 31.5716 41.4903 32.1697C41.334 32.4829 41.1473 32.7941 40.9722 33.1012C42.5125 34.7205 42.919 37.2407 41.7716 39.2696L31.3335 57.7899C30.6719 58.946 29.1918 59.3543 28.0466 58.6604C24.1004 56.3486 20.1586 53.9959 16.2177 51.6675C15.0726 50.9927 14.6532 49.474 15.3145 48.2931L25.7373 29.7876C26.6478 28.1787 28.3018 27.2728 30.0159 27.2376C30.4594 27.2284 30.9086 27.2792 31.3484 27.3903C31.5226 27.0853 31.6888 26.7656 31.8517 26.4588C32.1938 25.8638 32.8444 25.5356 33.5692 25.4054C33.7503 25.373 33.9397 25.3624 34.1317 25.3597C34.7087 25.3512 35.3138 25.4841 35.8785 25.8178L36.441 26.1538L38.3065 22.8255C37.8316 22.5419 37.3475 22.2652 36.8702 21.9857C38.0196 19.9207 39.2401 17.7773 40.2312 16.0002L40.2319 16ZM44.7917 21.924L44.7326 22.0004C44.5181 22.3221 44.3347 22.7164 44.1404 23.0692L48.0637 25.4051L48.7448 24.2599L44.7917 21.924ZM39.2547 23.3899L37.3742 26.7033L38.5438 27.3904L40.4093 24.0621L39.2547 23.3903V23.3899ZM34.132 26.459C33.9985 26.461 33.8719 26.4671 33.747 26.4896C33.2477 26.5793 32.866 26.857 32.7698 27.024L32.3554 27.7875C35.0177 29.3565 37.8736 30.9427 40.1579 32.3834C40.292 32.1223 40.4318 31.8752 40.5723 31.6199C40.6658 31.4574 40.7005 30.9925 40.528 30.5055C40.3555 30.0185 39.9953 29.5356 39.4916 29.2384L35.3462 26.7647C34.9681 26.5415 34.5322 26.4539 34.132 26.4593L34.132 26.459ZM30.2384 28.3368C28.8174 28.2949 27.4195 29.014 26.6703 30.3371L25.856 31.8029L39.9945 40.1853L40.8237 38.7194C41.9122 36.7958 41.2467 34.2833 39.3283 33.1618C36.9224 31.7386 34.5285 30.2777 32.118 28.8712C31.5182 28.5212 30.8826 28.3559 30.2375 28.3368H30.2384ZM18.379 45.0554L16.2323 48.8418C15.8658 49.4976 16.1199 50.3244 16.7653 50.7048L28.5943 57.6976C29.2397 58.0919 30.0344 57.8789 30.4007 57.2395L32.5325 53.4531L18.379 45.0554Z" fill="#85c225"/>
<path fill-rule="evenodd" clip-rule="evenodd" d="M54.0312 32.3523L54.4311 32.795C56.718 35.3921 57.9625 38.2297 57.9992 40.5513C58.0174 41.7121 57.7177 42.7638 57.0369 43.5286C56.3561 44.2934 55.3187 44.7194 54.0316 44.7194C52.7652 44.7194 51.7339 44.2433 51.0855 43.4369C50.4371 42.6306 50.1727 41.5525 50.1972 40.3679C50.2464 37.9989 51.4447 35.1599 53.6321 32.7946L54.032 32.3519L54.0312 32.3523ZM54.0164 34.0011C52.2493 36.0955 51.3161 38.5248 51.2774 40.3832C51.2566 41.3801 51.476 42.1899 51.9139 42.7345C52.3521 43.2794 53.0111 43.6199 54.0309 43.6199C55.0967 43.6199 55.7827 43.3056 56.2367 42.7954C56.6908 42.2852 56.9327 41.5255 56.9178 40.5662C56.8894 38.7677 55.9113 36.3148 54.0159 34.0007L54.0164 34.0011Z" fill="#85c225"/>
</svg>
