<svg width="110" height="110" viewBox="0 0 69 69" fill="none" xmlns="http://www.w3.org/2000/svg">
<path d="M49.9032 38.2722C50.0735 38.2718 50.2401 38.2232 50.3839 38.1321C50.5278 38.041 50.6429 37.9111 50.7161 37.7574L55.6839 27.6774L56.7677 30.92L58.4839 30.3871L56.6774 24.9677C56.6375 24.8479 56.5694 24.7395 56.4787 24.6516C56.3449 24.5214 56.1741 24.4359 55.9897 24.4068C55.8053 24.3777 55.6164 24.4064 55.449 24.489L50.0297 27.1987L50.8335 28.8155L53.8955 27.28L49.3794 36.4658H42.2258V32.1935C42.2881 31.302 41.9955 30.422 41.4118 29.7453C40.8281 29.0686 40.0007 28.65 39.1097 28.5806H32.8865L28.5239 30.3871H24.6129C24.4931 30.3871 24.3783 30.4347 24.2936 30.5194C24.2089 30.6041 24.1613 30.7189 24.1613 30.8387V32.7264C24.1613 32.8305 24.1972 32.9315 24.2631 33.0121C24.3289 33.0928 24.4206 33.1482 24.5226 33.169L28.5239 34L32.2903 33.0968V36.4658H25.5161C25.3736 36.4654 25.233 36.4988 25.1059 36.5631C24.9787 36.6275 24.8686 36.721 24.7845 36.8361L16.3755 48.289L17.8387 49.3548L25.9677 38.2722H32.2903V41.6774C32.2903 41.7972 32.3379 41.9121 32.4226 41.9967C32.5073 42.0814 32.6222 42.129 32.7419 42.129H41.7742C41.894 42.129 42.0088 42.0814 42.0935 41.9967C42.1782 41.9121 42.2258 41.7972 42.2258 41.6774V38.2722H49.9032Z" fill="#85c225"/>
<path d="M7.45161 62H15.5806C15.7004 62 15.8153 61.9524 15.9 61.8677C15.9847 61.783 16.0323 61.6682 16.0323 61.5484V55.6774C16.0323 54.9588 15.7468 54.2696 15.2386 53.7614C14.7304 53.2532 14.0412 52.9677 13.3226 52.9677H9.70968C8.99103 52.9677 8.30181 53.2532 7.79365 53.7614C7.28548 54.2696 7 54.9588 7 55.6774V61.5484C7 61.6682 7.04758 61.783 7.13227 61.8677C7.21697 61.9524 7.33184 62 7.45161 62Z" fill="#85c225"/>
<path d="M11.5161 52.5161C13.2621 52.5161 14.6774 51.1008 14.6774 49.3548C14.6774 47.6089 13.2621 46.1935 11.5161 46.1935C9.77022 46.1935 8.35486 47.6089 8.35486 49.3548C8.35486 51.1008 9.77022 52.5161 11.5161 52.5161Z" fill="#85c225"/>
<path d="M39.2 23.1613C39.0089 22.765 38.7377 22.4127 38.4034 22.1266C38.0691 21.8405 37.6791 21.6269 37.2581 21.4994H37.1948L36.8516 21.4271C36.7193 21.4178 36.5865 21.4178 36.4542 21.4271H36.3187C35.7221 21.4281 35.1381 21.5984 34.6344 21.9182C34.1308 22.238 33.7282 22.6941 33.4735 23.2336H30.4839V25.04H33.2387C33.2986 25.8784 33.6891 26.6587 34.3243 27.2092C34.9595 27.7598 35.7874 28.0354 36.6258 27.9755C37.4642 27.9156 38.2445 27.5251 38.795 26.8899C39.3455 26.2547 39.6212 25.4268 39.5613 24.5884C39.5576 24.3544 39.5304 24.1214 39.48 23.8929C39.4135 23.6396 39.3196 23.3943 39.2 23.1613Z" fill="#85c225"/>
<path d="M60.2903 12.7742H56.6774C55.9588 12.7742 55.2696 13.0597 54.7614 13.5678C54.2532 14.076 53.9677 14.7652 53.9677 15.4839V21.3548C53.9677 21.4746 54.0153 21.5895 54.1 21.6742C54.1847 21.7589 54.2996 21.8065 54.4194 21.8065H62.5484C62.6682 21.8065 62.783 21.7589 62.8677 21.6742C62.9524 21.5895 63 21.4746 63 21.3548V15.4568C62.9929 14.7428 62.7042 14.0606 62.1968 13.5582C61.6894 13.0559 61.0043 12.7742 60.2903 12.7742Z" fill="#85c225"/>
<path d="M58.4839 12.3226C60.2298 12.3226 61.6452 10.9072 61.6452 9.16129C61.6452 7.41536 60.2298 6 58.4839 6C56.7379 6 55.3226 7.41536 55.3226 9.16129C55.3226 10.9072 56.7379 12.3226 58.4839 12.3226Z" fill="#85c225"/>
<path d="M17.8387 24.191L12.4193 21.8697V28.0658L17.8387 30.3871V24.191Z" fill="#85c225"/>
<path d="M24.1613 21.8697L18.7419 24.191V30.3871L24.1613 28.0658V21.8697Z" fill="#85c225"/>
<path d="M23.7097 20.9664L18.2903 18.6451L12.871 20.9664L18.2903 23.2877L23.7097 20.9664Z" fill="#85c225"/>
<path d="M54.5 59.6271C54.5781 59.6271 54.6509 59.5908 54.6943 59.5301C54.8421 59.3237 58.3122 54.6688 58.3122 52.7775C58.3122 50.8134 56.6021 49 54.5 49C52.3979 49 50.6878 50.8134 50.6878 52.7775C50.6878 54.6688 54.1579 59.3237 54.3057 59.5301C54.3491 59.5908 54.4219 59.6271 54.5 59.6271ZM52.7132 52.8306C52.7132 51.7442 53.5147 50.9454 54.5 50.9454C55.4853 50.9454 56.2868 51.6922 56.2868 52.8306C56.2868 53.7511 55.4853 54.5 54.5 54.5C53.5147 54.5 52.7132 53.7512 52.7132 52.8306Z" fill="#85c225"/>
<path d="M56.4613 59.6271C56.9272 59.7497 57.2149 59.9154 57.2149 60.0983C57.2149 60.4754 55.9993 60.781 54.5 60.781C53.0007 60.781 51.7851 60.4754 51.7851 60.0983C51.7851 59.9154 52.0728 59.7497 52.5387 59.6271C51.0375 59.8106 50 60.1965 50 60.6444C50 61.2694 52.0147 61.776 54.5 61.776C56.9852 61.776 59 61.2694 59 60.6444C59 60.1965 57.9625 59.8106 56.4613 59.6271Z" fill="#85c225"/>
</svg>
