<svg width="110" height="110" viewBox="0 0 69 69" fill="none" xmlns="http://www.w3.org/2000/svg">
<path d="M17.3849 13.3662H58.4923V20.244H20.8147C20.8884 20.4477 20.951 20.6571 21.0011 20.8716H58.4923V27.8711H22.8052C23.0015 28.0636 23.1899 28.2729 23.3689 28.4985H58.4921V35.4411H25.8046C25.8315 35.6467 25.8565 35.8557 25.88 36.0685H58.4923V42.8495H26.0689C26.0516 43.3483 26.0301 43.8552 26.0015 44.3744C25.9243 45.7807 24.8179 46.8824 23.4832 46.8824C23.4314 46.8824 23.3797 46.8805 23.3283 46.8769C22.8189 46.8453 22.3528 46.6544 21.9712 46.3516V48.9116H63V47.9904H60.5855V42.8497H59.787V36.0687H60.5855V35.4413H59.787V28.4983H60.5855V27.8709H59.787V20.8714H60.5855V20.2438H59.787V13.3662H60.5855V12H15.2702V13.3662H16.0901V16.7539C16.5377 16.7607 16.9717 16.8284 17.3851 16.9492L17.3849 13.3662Z" fill="#85c225"/>
<path d="M55.1547 30.0741H53.2931C53.1833 30.0741 52.3896 30.7251 52.3896 30.9138V31.4687H54.3621V33.9444H52.3896V34.6701C52.3896 34.8588 52.5346 35.0117 52.7136 35.0117H55.7344C55.9134 35.0117 56.0581 34.8588 56.0581 34.6701V30.9138C56.0581 30.7251 55.2647 30.0741 55.1547 30.0741Z" fill="#85c225"/>
<path d="M55.1883 29.1208H53.2598V29.8819H55.1883V29.1208Z" fill="#85c225"/>
<path d="M50.4072 30.0741H48.546C48.4358 30.0741 47.6425 30.7251 47.6425 30.9138V34.6701C47.6425 34.8588 47.7873 35.0117 47.9661 35.0117H50.9873C51.1659 35.0117 51.311 34.8588 51.311 34.6701V30.9138C51.311 30.7251 50.5174 30.0741 50.4072 30.0741ZM50.9703 33.9444H48.8055V31.4687H50.9703V33.9444Z" fill="#85c225"/>
<path d="M50.4411 29.1208H48.5126V29.8819H50.4411V29.1208Z" fill="#85c225"/>
<path d="M46.1185 30.0741H44.2572C44.1471 30.0741 43.3534 30.7251 43.3534 30.9138V34.6701C43.3534 34.8588 43.4985 35.0117 43.6773 35.0117H46.6984C46.8772 35.0117 47.0221 34.8588 47.0221 34.6701V30.9138C47.0221 30.7251 46.2284 30.0741 46.1185 30.0741ZM46.7083 33.9444H44.5438V31.4687H46.7083V33.9444Z" fill="#85c225"/>
<path d="M46.1522 29.1208H44.2238V29.8819H46.1522V29.1208Z" fill="#85c225"/>
<path d="M41.6005 30.0741H39.739C39.6292 30.0741 38.8356 30.7251 38.8356 30.9138V34.6701C38.8356 34.8588 38.9805 35.0117 39.1591 35.0117H42.1803C42.359 35.0117 42.5041 34.8588 42.5041 34.6701V30.9138C42.5041 30.7251 41.7104 30.0741 41.6005 30.0741ZM42.1904 33.9444H40.0256V31.4687H42.1904V33.9444Z" fill="#85c225"/>
<path d="M41.634 29.1208H39.7055V29.8819H41.634V29.1208Z" fill="#85c225"/>
<path d="M31.553 30.0741H29.6916C29.5816 30.0741 28.788 30.7251 28.788 30.9138V34.6701C28.788 34.8588 28.9331 35.0117 29.1117 35.0117H32.1329C32.3115 35.0117 32.4565 34.8588 32.4565 34.6701V30.9138C32.4565 30.7251 31.6628 30.0741 31.553 30.0741ZM32.1426 33.9444H29.978V31.4687H32.1426V33.9444Z" fill="#85c225"/>
<path d="M31.5864 29.1208H29.6579V29.8819H31.5864V29.1208Z" fill="#85c225"/>
<path d="M27.9384 34.6701V30.9138C27.9384 30.7251 27.145 30.0741 27.0347 30.0741H25.1734C25.1072 30.0741 24.7954 30.3088 24.5562 30.537C24.9232 31.3825 25.224 32.3469 25.46 33.4348V31.4685H27.6246V33.9442H25.5654C25.6312 34.2875 25.6898 34.645 25.7435 35.0115H27.6145C27.7933 35.0117 27.9384 34.8588 27.9384 34.6701Z" fill="#85c225"/>
<path d="M27.0685 29.1208H25.14V29.8819H27.0685V29.1208Z" fill="#85c225"/>
<path d="M36.4217 30.0741H34.5604C34.4502 30.0741 33.6568 30.7251 33.6568 30.9138V31.4687H35.6358V33.9444H33.6568V34.6701C33.6568 34.8588 33.8017 35.0117 33.9805 35.0117H37.0015C37.1803 35.0117 37.3251 34.8588 37.3251 34.6701V30.9138C37.3249 30.7251 36.5316 30.0741 36.4217 30.0741Z" fill="#85c225"/>
<path d="M36.4553 29.1208H34.5268V29.8819H36.4553V29.1208Z" fill="#85c225"/>
<path d="M56.0783 24.8591H53.5697V26.9508H56.0783V24.8591Z" fill="#85c225"/>
<path d="M44.1235 24.8591H41.6149V26.9508H44.1235V24.8591Z" fill="#85c225"/>
<path d="M41.1349 24.8591H38.6263V26.9508H41.1349V24.8591Z" fill="#85c225"/>
<path d="M53.0896 24.8591H50.5812V26.9508H53.0896V24.8591Z" fill="#85c225"/>
<path d="M53.0896 22.2411H50.5812V24.3326H53.0896V22.2411Z" fill="#85c225"/>
<path d="M50.101 24.8591H47.5922V26.9508H50.101V24.8591Z" fill="#85c225"/>
<path d="M50.101 22.2411H47.5922V24.3326H50.101V22.2411Z" fill="#85c225"/>
<path d="M47.112 24.8591H44.6037V26.9508H47.112V24.8591Z" fill="#85c225"/>
<path d="M47.112 22.2411H44.6037V24.3326H47.112V22.2411Z" fill="#85c225"/>
<path d="M36.7484 23.6282H29.7083V26.901H36.7484V23.6282Z" fill="#85c225"/>
<path d="M29.4724 23.2869V23.3437H36.9846V23.2869V22.1485H29.4724V23.2869Z" fill="#85c225"/>
<path d="M27.8472 23.6282H20.9616C20.9173 23.7952 20.8659 23.9589 20.8073 24.1191V26.6163C21.0206 26.6874 21.2455 26.7797 21.48 26.901H27.8472V23.6282Z" fill="#85c225"/>
<path d="M28.0832 22.1485H21.151C21.151 22.1563 21.1516 22.1639 21.1516 22.1715C21.1516 22.5741 21.1085 22.966 21.0292 23.3437H28.0832V23.2867V22.1485Z" fill="#85c225"/>
<path d="M52.585 14.6068H50.7239V19.5584H52.585V14.6068Z" fill="#85c225"/>
<path d="M55.0127 14.6068H53.1516V19.5584H55.0127V14.6068Z" fill="#85c225"/>
<path d="M49.3216 17.5663H45.3293V19.5584H49.3216V17.5663Z" fill="#85c225"/>
<path d="M44.5202 17.5663H40.5282V19.5584H44.5202V17.5663Z" fill="#85c225"/>
<path d="M46.5159 15.0621H42.5241V17.0542H46.5159V15.0621Z" fill="#85c225"/>
<path d="M36.132 15.7267H33.9529C33.8192 15.7267 33.7107 15.8412 33.7107 15.9823V19.3032C33.7107 19.4445 33.8192 19.5586 33.9529 19.5586H36.132C36.2656 19.5586 36.3741 19.4445 36.3741 19.3032V15.9821C36.3741 15.841 36.2656 15.7267 36.132 15.7267Z" fill="#85c225"/>
<path d="M36.132 14.7051H33.9529C33.8192 14.7051 33.7107 14.8194 33.7107 14.9605V15.1202C33.7107 15.2614 33.8192 15.3758 33.9529 15.3758H36.132C36.2656 15.3758 36.3741 15.2614 36.3741 15.1202V14.9605C36.3741 14.8192 36.2656 14.7051 36.132 14.7051Z" fill="#85c225"/>
<path d="M32.6794 15.7267H30.5003C30.3664 15.7267 30.2581 15.8412 30.2581 15.9823V19.3032C30.2581 19.4445 30.3664 19.5586 30.5003 19.5586H32.6794C32.813 19.5586 32.9215 19.4445 32.9215 19.3032V15.9821C32.9215 15.841 32.813 15.7267 32.6794 15.7267Z" fill="#85c225"/>
<path d="M32.6794 14.7051H30.5003C30.3664 14.7051 30.2581 14.8194 30.2581 14.9605V15.1202C30.2581 15.2614 30.3664 15.3758 30.5003 15.3758H32.6794C32.813 15.3758 32.9215 15.2614 32.9215 15.1202V14.9605C32.9215 14.8192 32.813 14.7051 32.6794 14.7051Z" fill="#85c225"/>
<path d="M29.1728 15.7267H26.9938C26.8598 15.7267 26.7517 15.8412 26.7517 15.9823V19.3032C26.7517 19.4445 26.8598 19.5586 26.9938 19.5586H29.1728C29.3064 19.5586 29.4151 19.4445 29.4151 19.3032V15.9821C29.4151 15.841 29.3064 15.7267 29.1728 15.7267Z" fill="#85c225"/>
<path d="M29.1728 14.7051H26.9938C26.8598 14.7051 26.7517 14.8194 26.7517 14.9605V15.1202C26.7517 15.2614 26.8598 15.3758 26.9938 15.3758H29.1728C29.3064 15.3758 29.4151 15.2614 29.4151 15.1202V14.9605C29.4151 14.8192 29.3064 14.7051 29.1728 14.7051Z" fill="#85c225"/>
<path d="M25.2885 15.7267H23.1097C22.9756 15.7267 22.8674 15.8412 22.8674 15.9823V19.3032C22.8674 19.4445 22.9756 19.5586 23.1097 19.5586H25.2885C25.4223 19.5586 25.5308 19.4445 25.5308 19.3032V15.9821C25.5308 15.841 25.4223 15.7267 25.2885 15.7267Z" fill="#85c225"/>
<path d="M25.2885 14.7051H23.1097C22.9756 14.7051 22.8674 14.8194 22.8674 14.9605V15.1202C22.8674 15.2614 22.9756 15.3758 23.1097 15.3758H25.2885C25.4223 15.3758 25.5308 15.2614 25.5308 15.1202V14.9605C25.5308 14.8192 25.4223 14.7051 25.2885 14.7051Z" fill="#85c225"/>
<path d="M54.4247 38.1154V37.1335H54.7133V36.7494H50.4346V37.1335H50.723V38.1154H48.7707V42.1284H56.3774V38.1154H54.4247ZM51.2079 37.3899H53.9389L53.9393 38.1154H51.2079V37.3899Z" fill="#85c225"/>
<path d="M44.8758 37.1335H45.1646V36.7494H40.886V37.1335H41.1744V38.1154H39.2219V42.1284H46.8285V38.1154H44.8758V37.1335ZM41.6594 37.3899H44.3906V38.1154H41.6594V37.3899Z" fill="#85c225"/>
<path d="M34.761 37.1335H35.0494V36.7494H30.7709V37.1335H31.0593V38.1154H29.107V42.1284H36.7137V38.1154H34.7612V37.1335H34.761ZM31.5442 37.3895H34.2752L34.2756 38.1154H31.5444L31.5442 37.3895Z" fill="#85c225"/>
<path d="M26.5985 38.1154H26.0424C26.0851 38.9223 26.1087 39.7688 26.11 40.663C26.11 41.1358 26.1024 41.6274 26.0903 42.1283H26.5985V38.1154Z" fill="#85c225"/>
<path d="M8.54548 45.7402C8.57396 45.7402 8.60244 45.7395 8.63146 45.7376C9.42637 45.6885 10.0329 44.9687 9.9866 44.13C9.91612 42.8653 9.88457 41.7134 9.88457 40.6644C9.87827 36.0592 10.5147 33.4722 11.1397 32.122V38.4094V40.2962L12.7697 31.9698H12.7843L12.1923 27.5577C11.8733 27.5948 11.4519 27.6969 10.9866 27.9445C10.0171 28.4515 8.97178 29.5614 8.24031 31.5278C7.49984 33.5015 7.00252 36.3553 7 40.6646C7 41.7784 7.03407 42.9895 7.10743 44.308C7.15249 45.1162 7.78788 45.7402 8.54548 45.7402Z" fill="#85c225"/>
<path d="M16.4322 51.0222V60.6488C16.4322 61.9477 17.4303 63 18.6607 63C19.8914 63 20.8895 61.9477 20.8895 60.6488V49.9308C20.0515 50.2813 18.2874 50.9247 16.4322 51.0222Z" fill="#85c225"/>
<path d="M13.0383 27.5349L13.634 31.9698H15.965H18.3952L18.9907 27.5349H18.3741L18.6735 26.3057L16.407 27.0883V28.6989H15.686V27.1102L13.356 26.3057L13.6553 27.5349H13.0383Z" fill="#85c225"/>
<path d="M19.2104 32.2239L20.8895 40.8017V38.4096V32.1299C20.9966 32.3614 21.1042 32.6265 21.2105 32.9363C21.7185 34.4218 22.1459 36.8599 22.1442 40.6646C22.1446 41.7136 22.1125 42.8657 22.0426 44.1305C21.9961 44.9692 22.603 45.6887 23.3979 45.7381C23.4264 45.74 23.4547 45.7408 23.4828 45.7408C24.2411 45.7408 24.8769 45.1168 24.9219 44.3078C24.9944 42.9891 25.0283 41.7782 25.0283 40.6647C25.0212 34.9248 24.1524 31.7483 22.9673 29.8379C22.3751 28.8897 21.6826 28.2815 21.0425 27.9447C20.5769 27.6971 20.1555 27.595 19.8368 27.5579L19.2104 32.2239Z" fill="#85c225"/>
<path d="M11.1395 49.9717V60.6488C11.1395 61.9477 12.1375 63 13.3679 63C14.5987 63 15.5968 61.9477 15.5968 60.6488V51.0264C13.7766 50.9501 12.0283 50.3359 11.1395 49.9717Z" fill="#85c225"/>
<path d="M16.0144 26.4509C18.2543 26.4509 20.0701 24.5351 20.0701 22.1718C20.0701 19.8086 18.2543 17.8928 16.0144 17.8928C13.7745 17.8928 11.9587 19.8086 11.9587 22.1718C11.9587 24.5351 13.7745 26.4509 16.0144 26.4509Z" fill="#85c225"/>
</svg>
