<svg width="110" height="110" viewBox="0 0 69 69" fill="none" xmlns="http://www.w3.org/2000/svg">
<path d="M8.12686 19H30.6656C31.2915 19 31.8343 19.4954 31.8343 20.1149L31.7235 29.3704C31.3896 29.2466 31.5501 29.3112 31.1496 29.2609C30.7491 29.2107 30.5757 29.1047 29.5805 28.7034V21.2707H9.29562V39.8103H29.5387V36.8375L31.8344 37.9936V40.925C31.8344 41.5442 31.3336 42.0399 30.6657 42.0399H8.12701C7.50106 42.0399 7 41.5445 7 40.925V20.1557C7 19.495 7.50062 19 8.12686 19Z" fill="#85c225"/>
<path d="M55.6722 28.0387C55.6722 30.8631 53.3802 33.153 50.553 33.153C47.7257 33.153 45.4337 30.8631 45.4337 28.0387C45.4337 25.2139 47.7257 22.924 50.553 22.924C53.3802 22.924 55.6722 25.2139 55.6722 28.0387Z" fill="#85c225"/>
<path d="M62.7922 40.919C62.5798 40.5634 62.1755 40.0217 61.8952 39.7155L57.0935 34.4806C56.8132 34.1744 56.5766 34.1035 56.5675 34.1119C56.5585 34.12 56.2119 33.8184 55.7965 33.8184L45.2683 33.8181C44.8535 33.8181 44.4825 34.1257 44.4448 34.1236C44.4068 34.1223 44.1326 34.2704 43.8338 34.5592L40.3813 37.8578C40.0832 38.1466 39.8348 38.3565 39.8298 38.3511C39.8254 38.3457 39.8163 38.3256 39.8096 38.3188C39.8032 38.3121 39.5488 38.0472 39.258 37.7507L33.7634 32.1558C33.4724 31.8596 32.9921 31.8539 32.6956 32.1447L31.9091 32.9154L22.1665 22.7198C21.95 22.4935 21.5921 22.4854 21.3662 22.701C21.1397 22.9166 21.132 23.2749 21.3474 23.5006L31.1004 33.7073L30.5411 34.2567C30.2447 34.5468 30.2399 35.0274 30.531 35.3235L36.0092 40.8992C36.3003 41.1947 36.7705 41.685 37.0548 41.9872L37.5963 42.5634C37.8799 42.8653 38.3905 43.3593 38.7296 43.5991C38.7296 43.5991 39.1034 43.9285 39.7101 43.9285H39.7635C40.3514 43.9285 40.7049 43.6494 40.7049 43.6494C41.0541 43.4248 41.5828 42.9788 41.881 42.6904L43.7427 40.8751C44.0408 40.5856 44.2727 40.683 44.2579 41.0974L43.7854 54.2854C43.7702 54.6998 44.0983 55 44.5133 55H56.5903C57.0051 55 57.3328 54.6961 57.318 54.2814L57.1936 50.8172C57.1792 50.4028 56.9244 50.3095 56.6283 50.5999L55.8996 51.3192C55.6039 51.61 55.1232 51.6077 54.8319 51.3115L47.4537 43.808C47.1626 43.5125 47.167 43.0333 47.4637 42.7424L52.5897 37.7117C52.8854 37.4216 53.3664 37.4252 53.6575 37.7218L56.3121 40.4216C56.6031 40.7178 56.8411 40.9465 56.8408 40.931C56.8397 40.9146 56.991 41.0664 57.1755 41.2685C57.3607 41.4697 57.5069 41.6386 57.5022 41.6426C57.4965 41.648 57.4874 41.6567 57.48 41.6628C57.4726 41.6691 57.2011 41.9096 56.8892 42.1846L53.8074 44.9046C53.4962 45.179 53.473 45.6528 53.756 45.957L55.8099 48.1677C56.0923 48.4719 56.5779 48.4961 56.8892 48.221L59.9521 45.5178C60.2634 45.2428 60.7719 44.7932 61.0832 44.5175L61.6747 43.9926C61.9849 43.7176 62.4434 43.2206 62.6914 42.8881C62.6914 42.8881 62.9657 42.5217 62.9973 41.9166C63.0278 41.3108 62.7922 40.919 62.7922 40.919Z" fill="#85c225"/>
</svg>
