<svg width="110" height="110" viewBox="0 0 69 69" fill="none" xmlns="http://www.w3.org/2000/svg">
<path d="M22.3771 40.6239C20.9541 40.6581 19.6011 41.2688 18.6093 42.3245C17.6176 43.3803 17.0666 44.7966 17.0749 46.2684C17.0749 47.7572 17.6469 49.1849 18.665 50.2377C19.6832 51.2904 21.064 51.8819 22.5039 51.8819C23.9438 51.8819 25.3247 51.2904 26.3428 50.2377C27.3609 49.1849 27.9329 47.7572 27.9329 46.2684C27.9372 45.5174 27.7956 44.7731 27.5167 44.0797C27.2378 43.3863 26.8272 42.758 26.3091 42.2317C25.791 41.7053 25.1761 41.2918 24.5007 41.0157C23.8253 40.7395 23.1032 40.6063 22.3771 40.6239ZM22.4469 43.112C22.8508 43.1043 23.2522 43.1803 23.6272 43.3359C24.0022 43.4915 24.3432 43.7233 24.6299 44.0176C24.9167 44.312 25.1434 44.6629 25.2966 45.0495C25.4498 45.4361 25.5263 45.8506 25.5218 46.2684C25.5218 47.0963 25.2037 47.8903 24.6375 48.4757C24.0713 49.0611 23.3035 49.3899 22.5028 49.3899C21.7021 49.3899 20.9342 49.0611 20.368 48.4757C19.8019 47.8903 19.4838 47.0963 19.4838 46.2684C19.4748 45.4444 19.7812 44.65 20.3363 44.0587C20.8914 43.4675 21.6501 43.1272 22.4469 43.112Z" fill="#85c225"/>
<path d="M52.8928 40.6546C51.4808 40.6977 50.1406 41.3081 49.1567 42.3562C48.1727 43.4042 47.6226 44.8076 47.6229 46.2682C47.6078 47.0153 47.7371 47.7578 48.0032 48.4525C48.2693 49.1472 48.6668 49.7801 49.1724 50.3139C49.678 50.8477 50.2815 51.2718 50.9477 51.5613C51.6139 51.8508 52.3292 52 53.0518 52C53.7744 52 54.4898 51.8508 55.1559 51.5613C55.8221 51.2718 56.4257 50.8477 56.9313 50.3139C57.4369 49.7801 57.8344 49.1472 58.1005 48.4525C58.3665 47.7578 58.4958 47.0153 58.4808 46.2682C58.4809 45.5171 58.3353 44.7735 58.0525 44.0816C57.7698 43.3896 57.3556 42.7633 56.8345 42.2399C56.3135 41.7164 55.6961 41.3064 55.019 41.0341C54.342 40.7618 53.6189 40.6328 52.8928 40.6546ZM52.9625 43.1477C53.3662 43.1355 53.7682 43.2073 54.1447 43.3586C54.5211 43.5099 54.8644 43.7378 55.1541 44.0287C55.4439 44.3197 55.6742 44.6679 55.8315 45.0526C55.9887 45.4372 56.0698 45.8506 56.0697 46.2682C56.0697 47.0962 55.7517 47.8901 55.1855 48.4756C54.6193 49.061 53.8514 49.39 53.0507 49.39C52.25 49.39 51.4821 49.061 50.9159 48.4756C50.3497 47.8901 50.0316 47.0962 50.0316 46.2682C50.0316 45.4561 50.3377 44.6759 50.8849 44.0932C51.4321 43.5106 52.1774 43.1714 52.9625 43.1477Z" fill="#85c225"/>
<path d="M7.66118 16.0003C7.57442 15.9998 7.48843 16.017 7.40815 16.051C7.32788 16.085 7.25491 16.1352 7.19345 16.1985C7.13199 16.2619 7.08325 16.3371 7.05005 16.42C7.01685 16.5029 6.99984 16.5917 7 16.6814V45.5871C6.99983 45.6768 7.01684 45.7657 7.05004 45.8486C7.08324 45.9315 7.13197 46.0068 7.19343 46.0701C7.25489 46.1334 7.32786 46.1834 7.40814 46.2175C7.48842 46.2515 7.57442 46.2688 7.66118 46.2683H15.6407C15.6407 44.3865 16.3636 42.5817 17.6505 41.251C18.9374 39.9204 20.6828 39.1729 22.5027 39.1729C24.3226 39.1729 26.068 39.9204 27.3549 41.251C28.6418 42.5817 29.3648 44.3865 29.3648 46.2683H46.1911C46.2114 44.4007 46.9431 42.6165 48.2276 41.3033C49.512 39.99 51.2455 39.2535 53.0519 39.2535C54.8582 39.2535 56.5917 39.99 57.8761 41.3033C59.1606 42.6165 59.8923 44.4007 59.9126 46.2683H61.0312C61.5539 46.2673 62.0548 46.0517 62.424 45.669C62.7931 45.2864 63.0003 44.768 63 44.2275V38.0099C62.9997 37.6262 62.921 37.2469 62.7689 36.8969C62.6168 36.547 62.3948 36.2343 62.1175 35.9794L59.4428 33.5143C59.3044 33.3867 59.1936 33.2304 59.1177 33.0554C59.0419 32.8805 59.0027 32.6909 59.0027 32.4991V32.2599C59.0026 31.0098 58.7644 29.7719 58.3017 28.6169C57.8389 27.462 57.1606 26.4128 56.3056 25.5289C55.4506 24.6451 54.4356 23.944 53.3186 23.4658C52.2015 22.9876 51.0043 22.7416 49.7953 22.7419H43.0215V16.6812C43.0217 16.5917 43.0048 16.503 42.9717 16.4203C42.9387 16.3376 42.8902 16.2624 42.8289 16.1991C42.7677 16.1359 42.6951 16.0858 42.6151 16.0516C42.5351 16.0174 42.4493 15.9998 42.3628 16L7.66118 16.0003ZM9.63494 18.7196H40.3893V36.4548H9.63494V18.7196ZM46.9641 26.8213H49.7929C51.1879 26.8213 52.5258 27.3944 53.5122 28.4143C54.4987 29.4343 55.0529 30.8176 55.0529 32.2601V34.1955H46.9641V26.8213Z" fill="#85c225"/>
</svg>
