<svg width="110" height="110" viewBox="0 0 69 69" fill="none" xmlns="http://www.w3.org/2000/svg">
<path d="M61.2569 16.631H26.3921C25.4239 16.631 24.5843 17.3874 24.5843 18.3333L24.7556 32.4655C25.2722 32.2764 25.0239 32.375 25.6434 32.2983C26.2629 32.2215 26.5312 32.0597 28.0707 31.447V20.0981H59.449V48.4059H28.1353V43.8668L24.5841 45.6321V50.1079C24.5841 51.0535 25.3587 51.8103 26.3919 51.8103H61.2566C62.2249 51.8103 63 51.0539 63 50.1079V18.3956C63 17.3868 62.2256 16.631 61.2569 16.631Z" fill="#85c225"/>
<path d="M34.238 34.221C33.5278 32.8339 31.72 32.2666 30.2996 32.9601L24.8114 35.6709C24.8114 35.6709 18.9359 31.8251 18.355 31.384C17.774 31.0058 17.0638 30.5642 16.6116 30.4385C14.6746 29.8712 9.63865 29.3667 8.28303 32.5819C6.73372 36.0496 6.99186 44.8129 7.05619 51.0545C7.05619 51.6218 7.44351 52 7.96007 52H18.5486C19.1945 52 19.4525 51.6847 19.5169 51.1803C19.5813 50.865 20.1627 43.7411 20.0979 40.6516V39.5798L22.8739 41.4079C23.3905 41.7233 23.9715 41.9124 24.5525 41.9124C25.0046 41.9124 25.4564 41.7862 25.9086 41.597L32.946 38.0666C34.4317 37.3735 34.9483 35.6082 34.2381 34.2212L34.238 34.221Z" fill="#85c225"/>
<path d="M20.8094 22.3046C20.8094 25.7868 17.919 28.6093 14.3529 28.6093C10.7869 28.6093 7.8965 25.7868 7.8965 22.3046C7.8965 18.8225 10.7869 16 14.3529 16C17.919 16 20.8094 18.8225 20.8094 22.3046Z" fill="#85c225"/>
<path d="M44.7924 43.7406C46.4065 41.0298 49.3767 35.8598 50.2157 34.4098C51.3132 32.4555 51.2488 30.1857 50.2157 28.1052C48.4079 24.6375 44.0822 23.2505 40.5955 25.0158C37.0444 26.7811 35.6887 31.1313 37.4317 34.4098C38.2064 35.8598 41.2409 41.0298 42.855 43.7406C43.1784 44.4974 44.3408 44.4974 44.7925 43.7406H44.7924ZM40.6603 31.2574C40.6603 29.555 42.0807 28.2313 43.7593 28.2313C45.5026 28.2313 46.8582 29.6183 46.8582 31.2574C46.8582 32.9597 45.4378 34.2835 43.7593 34.2835C42.0807 34.2835 40.6603 32.8969 40.6603 31.2574Z" fill="#85c225"/>
</svg>
